<svg xmlns="http://www.w3.org/2000/svg" viewBox="0 0 300 300"><rect width="300" height="300" style="fill:#333"/><path d="M300,300H0a169,169,0,0,1,11.44-30.28c6-12.09,25.45-50.36,69.52-73.17a148.21,148.21,0,0,1,41.61-14.22c1.55-.28,3.1-.53,4.63-.75a71.89,71.89,0,0,1-13-5.38C109,173.39,88.44,161.61,79.27,136c-11.79-32.88,5-61,7.3-64.7a76.62,76.62,0,0,1,64.17-36,72.93,72.93,0,0,1,43.31,14.09C211.67,62.5,217.72,79.75,220.14,87s10.8,32.29-2.09,57.92c-11,21.84-30.6,30.62-37,33.39a75.37,75.37,0,0,1-9.94,3.42,154.43,154.43,0,0,1,37.59,10.66c43.2,18.53,64.43,51.52,72,63.66A169,169,0,0,1,300,300Z" style="fill:#e6e6e6"/></svg>