<svg id="Layer_1" data-name="Layer 1" xmlns="http://www.w3.org/2000/svg" viewBox="0 0 280 60"><defs><style>.cls-1{fill:#231f20;}.cls-2{fill:#fff;}</style></defs><path class="cls-1" d="M28.16,30.63C27,29.22,26.5,28.68,26.4,28.58s-.11-.11,0-.08,1.8.08,2.34.08a8.46,8.46,0,0,0,1.8-.11.61.61,0,0,0,.32-.61,12.62,12.62,0,0,0-.11-2.45,7.88,7.88,0,0,0-1.51-3.49,31.45,31.45,0,0,0-3.67-4,21.47,21.47,0,0,0-2.88-2.45,9.93,9.93,0,0,0-3.6-2,8.46,8.46,0,0,0-4.39-.22A6.28,6.28,0,0,0,11.1,15a7.81,7.81,0,0,0-2.2,3.6,8.77,8.77,0,0,0,0,4.32,8.19,8.19,0,0,0,1.51,3.6A12.26,12.26,0,0,0,12,28.61c.51.54.83.79.94.9s.5.22,0,.22l-4,0c-.18,0-.29,0-.29.18s.07,1.95.18,3.1a10.08,10.08,0,0,0,2.09,4.89,30.12,30.12,0,0,0,4.75,4.76,10.58,10.58,0,0,0,4.75,2.23A43.75,43.75,0,0,0,25.6,45a5.17,5.17,0,0,0,3.78-2c1.41-1.62,1.55-5,1.55-6.38a6.13,6.13,0,0,0-.5-2.8A23.4,23.4,0,0,0,28.16,30.63Z"/><path class="cls-2" d="M22.87,36.82a6.8,6.8,0,0,1-5.11,2.52A7.12,7.12,0,0,1,12.93,38a8.39,8.39,0,0,1-3.06-4.1,14,14,0,0,1-.54-3.2c0-.11,0-.15.22-.15l4.1,0c.18,0,.26,0,.26.14a7.52,7.52,0,0,0,.28,1.87,2.9,2.9,0,0,0,2.81,2,2.59,2.59,0,0,0,2.92-2.73,2.89,2.89,0,0,0-1.7-2.67,18.93,18.93,0,0,0-3.38-.86A6.81,6.81,0,0,1,11.06,26a9,9,0,0,1-1.83-5.47A7.06,7.06,0,0,1,11.13,16a7.55,7.55,0,0,1,5.12-2.41,8.06,8.06,0,0,1,5.36,1.84,7.09,7.09,0,0,1,2.52,4.14,10.46,10.46,0,0,1,.25,2.73c0,.25-.07.22-.25.22s-3.75-.15-4-.15-.26,0-.26-.18-.18-2.44-1.51-3.23a2.94,2.94,0,0,0-3.56.28,2.84,2.84,0,0,0-.54,3.24c.58,1.12,1.44,1.51,4,2a8.17,8.17,0,0,1,5.22,3.46,6.48,6.48,0,0,1,1.08,3.89A7.18,7.18,0,0,1,22.87,36.82Z"/><path class="cls-1" d="M47.56,13.79a1,1,0,0,0-.61-.22L30,13.39c-.29,0-.47.11-.47.65,0,.22,0,5.36,0,5.47a.49.49,0,0,0,.18.43c.14.18,5,4.72,5.15,4.83s.21.18.21.39.07,14.08,0,14.29a.65.65,0,0,0,.14.51c.11.18,4,4,4.21,4.1s.54.54.8.54,6.37,0,6.66,0,.43-.07.39-.36.14-18.43.14-18.61.08-.29.29-.29l3.89,0c.14,0,.22-.14.22-.32s0-6.44.07-6.7a.64.64,0,0,0-.18-.5C51.66,17.68,47.74,13.93,47.56,13.79Z"/><path class="cls-2" d="M45.86,18.72c-.1,0-1.4,0-2.33,0s-2.49,0-2.74,0-.36.11-.36.29,0,19.87,0,20,0,.18-.08.18-1.29,0-2.08,0-2.09,0-2.16,0-.08,0-.08-.15S35.89,19.15,35.89,19a.25.25,0,0,0-.21-.25c-.15,0-5.19-.11-5.29-.11s-.15,0-.15-.11-.11-4.1-.07-4.28,0-.22.25-.18,4.65,0,7.27,0,8,0,8,0,.18,0,.18.14a16.25,16.25,0,0,1,0,2.09c0,.86.07,2.16.07,2.27S46,18.72,45.86,18.72Z"/><path class="cls-1" d="M63.79,18.94a3.08,3.08,0,0,0-2.26-.69,2.32,2.32,0,0,0-2.06,1.05,3.74,3.74,0,0,0-.57,2.08c0,.58,0,2,0,4.43a55.81,55.81,0,0,0,.18,5.94c.14.76.18,2.77,2.91,2.74s2.74-2.81,2.74-3.6-.07-8.82-.11-9.76A2.5,2.5,0,0,0,63.79,18.94Z"/><path class="cls-1" d="M73.3,19.8a26.93,26.93,0,0,0-3.14-3.2,32.76,32.76,0,0,0-4.1-2.85,9.06,9.06,0,0,0-5.4-1A7.73,7.73,0,0,0,55.12,16a7.15,7.15,0,0,0-1.41,3.74c0,1.08-.1,3.1-.18,6.16s-.28,6.8.08,8.1a11.93,11.93,0,0,0,1.87,4.1,25.21,25.21,0,0,0,5.15,4.68c2.37,1.58,3.42,1.94,4.78,2.09a18.77,18.77,0,0,0,5.29,0,6,6,0,0,0,3.64-2.3,5.32,5.32,0,0,0,1.08-2.7c.07-.61.22-3.53.25-7.92s.11-6.84-.43-8.53A9.92,9.92,0,0,0,73.3,19.8Z"/><path class="cls-2" d="M69.3,32.58a8.31,8.31,0,0,1-2.55,4.79c-1.41,1.33-2.45,1.69-4.94,1.83s-3.92-.68-5.5-2.16a6,6,0,0,1-2.09-4c-.07-1,0-3.53,0-7s0-4.57.08-5.61a7.58,7.58,0,0,1,1.76-4.21,6.23,6.23,0,0,1,5.26-2.67,7.53,7.53,0,0,1,5.5,1.91,7.16,7.16,0,0,1,2.45,5.11c.11,1.44.11,3.06.15,5.94S69.41,31,69.3,32.58Z"/><path class="cls-1" d="M97.88,20.48a33.22,33.22,0,0,0-5.07-5c-2.09-1.44-3.6-2.31-5.22-2.52a20.64,20.64,0,0,0-4.25-.07A7.7,7.7,0,0,0,79.78,15a7.42,7.42,0,0,0-2.16,5.19c-.11,2.77-.15,11.33,0,12.67a10.91,10.91,0,0,0,2.41,5.47c2,2.3,4.6,4.71,6.66,5.65a10.43,10.43,0,0,0,4.17,1.19,17.19,17.19,0,0,0,5-.22,4.08,4.08,0,0,0,3-2.91,20.6,20.6,0,0,0,.61-5.37,16.19,16.19,0,0,0-.14-2.52,1.48,1.48,0,0,0-.36-.75,12,12,0,0,0-1.3-1.59c-.5-.75-1.08-1.4-1.26-1.65s-.1-.22,0-.22c.29,0,2.52,0,2.78,0s.36.14.36-.15.07-2.81.07-3.71a11.13,11.13,0,0,0-.4-3A9.4,9.4,0,0,0,97.88,20.48Z"/><path class="cls-2" d="M92.56,35.35c-1.37,2.2-2.92,3.67-5.51,3.89a8.94,8.94,0,0,1-6.52-1.87,6.16,6.16,0,0,1-2.37-4.57c-.22-1.88-.18-6.12-.18-9.11a20.45,20.45,0,0,1,.32-4.93,7.8,7.8,0,0,1,2.09-3.42A5.62,5.62,0,0,1,84,13.54a11.28,11.28,0,0,1,3.78.21c1.33.4,3.52,1.26,4.53,3a7.63,7.63,0,0,1,1.23,3.56c.07,1.15.07,2.95.07,3.17s0,.21-.11.25l-4.75.07c-.15,0-.15-.14-.18-.21a17.7,17.7,0,0,0-.18-3.39,2.16,2.16,0,0,0-1.12-1.58,3.18,3.18,0,0,0-2.7,0,3.26,3.26,0,0,0-1.37,2.7c-.07,1.51-.18,7.23-.21,9.11s.29,3,1.26,3.67A3,3,0,0,0,87.37,34a3.15,3.15,0,0,0,1.19-2.34c.07-1.12.11-2.38.11-2.63s0-.25.22-.21l4.64,0c.21,0,.18,0,.18.18S94,33.08,92.56,35.35Z"/><path class="cls-1" d="M126.61,42.62c-.14-.25-3.56-6.87-4.57-8.85s-3.1-6.3-3.2-6.45-.11-.18,0-.28,3-3.1,4-4.07,3.34-3.42,3.52-3.67a.54.54,0,0,0,.22-.47v-.65a.48.48,0,0,0-.14-.4c-.15-.1-4.29-3.92-4.54-4.17s-.36-.29-.58-.25-8,.07-8.31.07-.29.11-.47.29-2.12,2.19-2.3,2.34-.18.18-.25,0-.51-.76-.94-1.33a9.76,9.76,0,0,0-1-1.16.36.36,0,0,0-.4-.14h-5.07a1.46,1.46,0,0,0-.62.14c-.14.08-.25.47-.25.47,0,.15-.11.9-.14,1.19,0,1.51-.11,6.37-.11,8.6,0,1.62.14,15.19.14,15.34a1,1,0,0,0,.18.54c.15.18,5.51,4.89,5.62,5s.25.17.4.17,6.26-.1,6.48-.14a.47.47,0,0,0,.43-.57V40.1c0-.14,0-.14.21,0s1.44,1,3,2.31,2.52,2.05,2.7,2.19a.92.92,0,0,0,.62.18c.28,0,4.82,0,5.18,0s.36-.15.36-.37a7.33,7.33,0,0,0,0-1.25A1.09,1.09,0,0,0,126.61,42.62Z"/><path class="cls-2" d="M120.38,39.09l-4.75,0c-.14,0-.14,0-.21-.14s-3.46-7.06-4.29-8.79-2.41-5-2.52-5.22-.14-.14-.25-.07-1.11,1.23-1.19,1.3-.07.14-.07.29,0,12.52,0,12.67-.07.14-.18.14h-4.5c-.11,0-.15,0-.15-.14s-.14-13.72-.14-15.77,0-9.07,0-9.21,0-.11.1-.15,1.34,0,2.49,0,2.23,0,2.34,0,.21,0,.18.18,0,1.48-.07,3,0,2.2,0,2.2v.29c0,.28.07.21.22.14s2.7-2.52,3.67-3.38,1.87-1.91,2.05-2.13a.57.57,0,0,1,.47-.18h5.65c.32,0,.14.08.07.15s-2.52,2.55-3.49,3.49-3.6,3.42-3.78,3.63-.14.22-.07.36,4.17,8.39,5.11,10.26,3.31,6.59,3.42,6.81S120.56,39.09,120.38,39.09Z"/><path class="cls-1" d="M137.7,19.76a3.4,3.4,0,0,0-1.94-.9c-.43,0-.76-.07-1.33-.07a5.52,5.52,0,0,0-1.08.15.19.19,0,0,0-.15.21c0,.15-.11,15.16-.11,15.26s.18.22.44.29a11.6,11.6,0,0,0,2.77,0,2.11,2.11,0,0,0,1.29-.72,2.29,2.29,0,0,0,.72-1.29c.11-.51.22-4.11.22-6s.07-4.25,0-4.86A3.37,3.37,0,0,0,137.7,19.76Z"/><path class="cls-1" d="M149,26.17a4.91,4.91,0,0,0-.43-2.19,20.4,20.4,0,0,0-2.13-3.6,20.83,20.83,0,0,0-2.95-3.21,16.58,16.58,0,0,0-4-2.91,7.15,7.15,0,0,0-3.71-.72c-1.4,0-6.66,0-7,0s-.39.07-.39.29-.18,13.1-.22,16.13,0,9.14,0,9.5,0,.36.19.54,4.21,4.1,4.53,4.39.25.18.68.22,9.36.14,10.62,0A4.47,4.47,0,0,0,147.31,43a4.78,4.78,0,0,0,1.59-3.31c.18-1.58.1-3.71.1-5.94S149,27.29,149,26.17Z"/><path class="cls-2" d="M142.92,28.66c0,1.8,0,3.31-.07,4.17a6.27,6.27,0,0,1-.83,2.66,6.43,6.43,0,0,1-2.55,2.74c-1.44.86-2.34.83-4.43.94s-6.16.1-6.3.07-.07-.07-.07-.25.07-13.68.07-15,.14-9.61.14-9.72.11-.07.36-.07,6.52,0,7.67.14a6.88,6.88,0,0,1,3.92,1.95,7.14,7.14,0,0,1,2.09,4.42C143,22.14,143,26.89,142.92,28.66Z"/><path class="cls-1" d="M172.62,33.48a7.22,7.22,0,0,0-1.22-1.62c-.11-.15-.11-.22,0-.4a7.17,7.17,0,0,0,1.48-2.7,8.1,8.1,0,0,0-.36-4.39,9.77,9.77,0,0,0-2.2-3.6,37.5,37.5,0,0,0-4.89-4.93A10.88,10.88,0,0,0,160,13.72c-2.12-.22-7.7-.29-8.28-.25s-.79.07-.79.46,0,24.77,0,25.09a.91.91,0,0,0,.29.76l4.89,4.68a.41.41,0,0,0,.36.14l5.11,0c.29,0,.51-.11.51-.33s0-3.16,0-3.49.15-.39.47-.11a53.47,53.47,0,0,0,4.86,3.64,3.07,3.07,0,0,0,1.51.29,9,9,0,0,0,2.59-.15,3.09,3.09,0,0,0,1.41-1.11,1.08,1.08,0,0,0,.18-.54c0-.18,0-3.57-.07-5.19S173.12,34.52,172.62,33.48Z"/><path class="cls-2" d="M168.37,36.29a4.07,4.07,0,0,1-.9,1.83A2.73,2.73,0,0,1,165,39.17a2.65,2.65,0,0,1-2.37-1.26c-.9-1-.87-3.86-.9-5.51a3,3,0,0,0-1.4-2.92c-.94-.61-3.75-.39-3.89-.36s-.29,0-.29.33,0,9.28,0,9.5-.07.25-.25.29h-4.1c-.22,0-.22-.18-.22-.36s-.07-7.63,0-12-.07-12.49,0-12.71,0-.14.18-.22,4.28.08,5.43.15a11.45,11.45,0,0,1,5,1A8.83,8.83,0,0,1,165.74,19a6.88,6.88,0,0,1,.36,5,5.84,5.84,0,0,1-1.51,2.81c-.07.11-.14.18,0,.36a11.93,11.93,0,0,1,1.23,1.91,10.57,10.57,0,0,1,.54,3.67,3.36,3.36,0,0,0,.43,2.09,2.89,2.89,0,0,0,1.47,1.08C168.44,36,168.44,36,168.37,36.29Z"/><path class="cls-1" d="M160.06,19.12a4.45,4.45,0,0,0-1.87-.33,17.92,17.92,0,0,0-1.88.07c-.14,0-.25.08-.25.26s.07,4.64.07,4.86,0,.5.44.5a10.86,10.86,0,0,0,3.34-.14,2.43,2.43,0,0,0,1.91-2.49A2.86,2.86,0,0,0,160.06,19.12Z"/><path class="cls-1" d="M194,19.8a27.54,27.54,0,0,0-3.13-3.2,32.76,32.76,0,0,0-4.1-2.85,9.06,9.06,0,0,0-5.4-1A7.73,7.73,0,0,0,175.83,16a7.15,7.15,0,0,0-1.41,3.74c0,1.08-.1,3.1-.18,6.16s-.29,6.8.08,8.1a11.57,11.57,0,0,0,1.87,4.1,25.38,25.38,0,0,0,5.14,4.68c2.38,1.58,3.42,1.94,4.79,2.09a18.77,18.77,0,0,0,5.29,0,6,6,0,0,0,3.64-2.3,5.32,5.32,0,0,0,1.08-2.7c.07-.61.21-3.53.25-7.92s.11-6.84-.43-8.53A9.92,9.92,0,0,0,194,19.8Z"/><path class="cls-2" d="M190,32.58a8.33,8.33,0,0,1-2.56,4.79c-1.4,1.33-2.44,1.69-4.93,1.83S178.6,38.52,177,37a5.93,5.93,0,0,1-2.08-4c-.07-1,0-3.53,0-7s0-4.57.07-5.61a7.67,7.67,0,0,1,1.77-4.21,6.22,6.22,0,0,1,5.25-2.67,7.56,7.56,0,0,1,5.51,1.91A7.16,7.16,0,0,1,190,20.52c.11,1.44.11,3.06.14,5.94S190.12,31,190,32.58Z"/><path class="cls-1" d="M184.5,18.94a3.09,3.09,0,0,0-2.27-.69,2.3,2.3,0,0,0-2,1.05,3.74,3.74,0,0,0-.57,2.08c0,.58,0,2,0,4.43a55.81,55.81,0,0,0,.18,5.94c.14.76.18,2.77,2.91,2.74s2.74-2.81,2.74-3.6-.08-8.82-.11-9.76A2.53,2.53,0,0,0,184.5,18.94Z"/><path class="cls-1" d="M206.71,19a12.54,12.54,0,0,0-2.73-.14c-.4.07-.51,0-.51.29s0,4.35,0,4.64.11.47.47.47a11.15,11.15,0,0,0,2.95-.18,2.41,2.41,0,0,0,2-2.52A2.59,2.59,0,0,0,206.71,19Z"/><path class="cls-1" d="M210.82,14.9a7.38,7.38,0,0,0-4.25-1.43c-2-.08-7.41-.08-7.7,0s-.62.07-.62.46,0,10.59,0,14.83,0,9.9,0,10.3a.86.86,0,0,0,.19.65c.14.18,1.43,1.62,2.33,2.52s1.8,1.65,2,1.87a1,1,0,0,0,.83.36c.36,0,6,.14,6.26.11s.4,0,.47-.51.07-8,.07-8.24,0-.43.29-.43a12.39,12.39,0,0,0,5-1.41c1.94-1.08,4.35-2.3,4.24-6.58a8.37,8.37,0,0,0-2.59-6.52A42.62,42.62,0,0,0,210.82,14.9Z"/><path class="cls-2" d="M211.54,26.82a5.21,5.21,0,0,1-3.46,1.87c-1.47.18-3.92.18-4.17.18s-.36,0-.33.22-.11,3-.11,5.14v4.68c0,.33,0,.36-.39.36s-3.57-.07-3.92-.07-.26-.14-.26-.39,0-8.5-.07-12.28,0-12,.07-12.24,0-.14.33-.14,5.58,0,7.77.07a6.64,6.64,0,0,1,4.61,2.45,7.25,7.25,0,0,1,2,4.89A7.66,7.66,0,0,1,211.54,26.82Z"/><path class="cls-1" d="M240.26,30.49c-1.15-1.4-1.65-1.94-1.76-2s-.11-.11,0-.07,1.8.07,2.34.07a8.46,8.46,0,0,0,1.8-.11.61.61,0,0,0,.32-.61,12.45,12.45,0,0,0-.1-2.45,7.85,7.85,0,0,0-1.52-3.49,31.45,31.45,0,0,0-3.67-4,21.7,21.7,0,0,0-2.88-2.45,10.14,10.14,0,0,0-3.6-2.05A8.56,8.56,0,0,0,226.8,13a6.37,6.37,0,0,0-3.6,1.87A7.79,7.79,0,0,0,221,18.5a8.66,8.66,0,0,0,0,4.32,8.43,8.43,0,0,0,1.51,3.6,12.37,12.37,0,0,0,1.66,2.06c.5.54.83.79.93.9s.51.21,0,.21l-4,0c-.18,0-.29,0-.29.18s.08,1.94.18,3.09A10.2,10.2,0,0,0,223,37.8a30,30,0,0,0,4.75,4.75,10.66,10.66,0,0,0,4.76,2.23,43.66,43.66,0,0,0,5.18.11,5.17,5.17,0,0,0,3.78-2c1.4-1.62,1.55-5,1.55-6.37a6,6,0,0,0-.51-2.81A24,24,0,0,0,240.26,30.49Z"/><path class="cls-2" d="M235,36.68a6.79,6.79,0,0,1-5.11,2.52A7.12,7.12,0,0,1,225,37.91,8.39,8.39,0,0,1,222,33.8a14,14,0,0,1-.54-3.2c0-.11,0-.14.21-.14l4.11,0c.18,0,.25,0,.25.14a7.73,7.73,0,0,0,.29,1.87,2.9,2.9,0,0,0,2.81,2.06A2.59,2.59,0,0,0,232,31.75a2.85,2.85,0,0,0-1.69-2.66,18,18,0,0,0-3.38-.87,6.67,6.67,0,0,1-3.78-2.34,9,9,0,0,1-1.84-5.47,7,7,0,0,1,1.91-4.53,7.47,7.47,0,0,1,5.11-2.41,8,8,0,0,1,5.36,1.83,7.1,7.1,0,0,1,2.52,4.14,10.07,10.07,0,0,1,.25,2.74c0,.25-.07.21-.25.21s-3.74-.14-4-.14-.25,0-.25-.18-.18-2.45-1.51-3.24a2.94,2.94,0,0,0-3.57.29,2.87,2.87,0,0,0-.54,3.24c.58,1.11,1.44,1.51,4,2a8.11,8.11,0,0,1,5.22,3.45,6.49,6.49,0,0,1,1.08,3.89A7.07,7.07,0,0,1,235,36.68Z"/><path class="cls-1" d="M246.34,37.1a.38.38,0,0,0-.29-.12h-2.19c-.15,0-.11.08-.11.15s-.07,1.85-.07,2a.46.46,0,0,0,.12.33c.06.09.7.68,1.25,1.23s.77.71.83.76a.29.29,0,0,0,.19,0c.06,0,.84,0,1.14,0a6.12,6.12,0,0,0,.67,0c.06,0,.1-.08.11-.18s0-2.13,0-2.24,0-.11-.1-.22S246.41,37.19,246.34,37.1Z"/><path class="cls-2" d="M245.64,39.15c0,.11,0,.14-.1.14l-1.41-.07c-.1,0-.09-.07-.09-.16V37.33c0-.06,0,0,.12,0l1.42,0c.07,0,.09,0,.09.14S245.64,39.05,245.64,39.15Z"/><path class="cls-1" d="M257.14,30.67c-.13-.11-.28-.33-.68-.68s-.7-.55-.78-.61a.54.54,0,0,0-.36-.12l-2.29,0c-.11,0-.12,0-.12.14s0,.83,0,.94,0,.19-.12,0-1.53-.91-1.66-1a.54.54,0,0,0-.36-.12l-2.05,0c-.12,0-.14,0-.15.14s0,4.26,0,5.2,0,4.75,0,4.87a.3.3,0,0,0,.13.3l1.71,1.57a.29.29,0,0,0,.22.07c.09,0,2.23,0,2.35,0s.21,0,.21-.17v-.88c0-.11,0-.15.13,0s1.34.88,1.46,1a.7.7,0,0,0,.35.12h2.13c.07,0,.12-.1.14-.34s-.06-9.72-.07-10S257.28,30.8,257.14,30.67Z"/><path class="cls-2" d="M254.94,39.26l-1.64.06c-.09,0-.09,0-.14-.13s-2.42-5.62-2.48-5.7-.1-.25-.1,0,0,5.42,0,5.6,0,.16-.11.16-1.6.05-1.67.05-.05,0-.05-.11,0-3,0-4.2,0-5.28,0-5.35,0-.08.07-.1l1.81-.06c.07,0,.07,0,.09.09s.75,1.67,1.05,2.34,1.08,2.59,1.24,2.93.14.16.14,0V29.64c0-.13,0-.13.07-.13l1.61-.06a.1.1,0,0,1,.11.09c0,.07,0,9.51,0,9.61S255,39.26,254.94,39.26Z"/><path class="cls-1" d="M266.48,31.09c0-.09,0-.11-.06-.19s-1.74-1.54-1.81-1.59a.29.29,0,0,0-.18,0c-.1,0-5.95,0-6.07,0s-.16,0-.15.14-.1,9.8-.1,9.93.09.15.11.2,1.89,1.76,1.95,1.8.07.06.14.06l6-.06c.1,0,.13,0,.13-.14s0-2,0-2.07,0-.08-.06-.15-1.86-1.85-1.9-1.9,0-.06,0-.08,0-.06,0-.11,0-1.58,0-1.65a.15.15,0,0,0-.05-.13s-1.16-1.6-1.21-1.67-.05,0,0,0l3.11,0c.09,0,.09,0,.1-.13S266.46,31.18,266.48,31.09Z"/><path class="cls-2" d="M264.07,31.21c0,.07,0,.09-.13.12s-3.54,0-3.61,0-.09,0-.09.06,0,1.81,0,1.86,0,.09.07.09l2,0s0,0,0,.06,0,1.64,0,1.7,0,.07-.07.07h-1.94c-.07,0-.11.06-.09.11s0,1.82,0,1.91,0,.09.08.11,3.6,0,3.68,0,.09,0,.09.09,0,1.62,0,1.69,0,.1-.06.1-5.59,0-5.66.06-.07,0-.07-.07.13-9.51.13-9.63,0-.11.11-.11,5.37,0,5.44.05.07,0,.07.08S264.08,31.14,264.07,31.21Z"/><path class="cls-1" d="M275.63,30.93c0-.06-1.57-1.52-1.64-1.57a.32.32,0,0,0-.24-.09l-6.58-.07c-.11,0-.18,0-.18.25s0,2.09,0,2.13a.18.18,0,0,0,.07.17c.05.07,2,1.84,2,1.88s.09.07.09.15,0,5.48,0,5.56,0,.16.06.2,1.56,1.54,1.63,1.6.22.21.31.21h2.59c.12,0,.17,0,.16-.14s0-7.17,0-7.24,0-.11.12-.11l1.51,0c.06,0,.08-.05.08-.12s0-2.51,0-2.61A.24.24,0,0,0,275.63,30.93Z"/><path class="cls-2" d="M273.33,31.28h-2a.13.13,0,0,0-.14.12c0,.07,0,7.73,0,7.77s0,.07,0,.07h-1.65s0,0,0-.06-.07-7.76-.07-7.81a.1.1,0,0,0-.08-.1l-2.06,0s-.06,0-.06,0,0-1.6,0-1.67,0-.09.09-.07,1.81,0,2.83,0,3.1,0,3.13,0,.07,0,.07.06a6.05,6.05,0,0,1,0,.81c0,.33,0,.84,0,.88S273.39,31.28,273.33,31.28Z"/><path class="cls-1" d="M63.76,18.93a3.09,3.09,0,0,0-2.27-.68,2.28,2.28,0,0,0-2.05,1,3.77,3.77,0,0,0-.57,2.09c0,.57,0,2,0,4.43a56,56,0,0,0,.18,5.94c.14.75.18,2.77,2.91,2.73s2.74-2.81,2.74-3.6-.07-8.82-.11-9.75A2.56,2.56,0,0,0,63.76,18.93Z"/><path class="cls-1" d="M137.7,19.76a3.4,3.4,0,0,0-1.94-.9c-.43,0-.76-.07-1.33-.07a5.52,5.52,0,0,0-1.08.15.19.19,0,0,0-.15.21c0,.15-.11,15.16-.11,15.26s.18.22.44.29a11.6,11.6,0,0,0,2.77,0,2.11,2.11,0,0,0,1.29-.72,2.29,2.29,0,0,0,.72-1.29c.11-.51.22-4.11.22-6s.07-4.25,0-4.86A3.37,3.37,0,0,0,137.7,19.76Z"/><path class="cls-1" d="M160.06,19.12a4.45,4.45,0,0,0-1.87-.33,17.92,17.92,0,0,0-1.88.07c-.14,0-.25.08-.25.26s.07,4.64.07,4.86,0,.5.44.5a10.86,10.86,0,0,0,3.34-.14,2.43,2.43,0,0,0,1.91-2.49A2.86,2.86,0,0,0,160.06,19.12Z"/><path class="cls-1" d="M184.5,18.94a3.09,3.09,0,0,0-2.27-.68,2.28,2.28,0,0,0-2,1,3.77,3.77,0,0,0-.57,2.09c0,.57,0,2,0,4.42a55.81,55.81,0,0,0,.18,5.94c.14.76.18,2.78,2.91,2.74s2.74-2.81,2.74-3.6-.08-8.82-.11-9.76A2.54,2.54,0,0,0,184.5,18.94Z"/><path class="cls-1" d="M206.78,19a12.54,12.54,0,0,0-2.73-.14c-.4.07-.51,0-.51.29s0,4.35,0,4.64.11.47.47.47a11.17,11.17,0,0,0,3-.18,2.41,2.41,0,0,0,2-2.52A2.59,2.59,0,0,0,206.78,19Z"/><path class="cls-1" d="M28.16,30.44C27,29,26.5,28.49,26.4,28.39s-.11-.11,0-.08,1.8.08,2.34.08a8.46,8.46,0,0,0,1.8-.11.61.61,0,0,0,.32-.61,12.62,12.62,0,0,0-.11-2.45,7.88,7.88,0,0,0-1.51-3.49,31.45,31.45,0,0,0-3.67-4,21.47,21.47,0,0,0-2.88-2.45,9.93,9.93,0,0,0-3.6-2.05A8.46,8.46,0,0,0,14.7,13a6.28,6.28,0,0,0-3.6,1.87,7.81,7.81,0,0,0-2.2,3.6,8.77,8.77,0,0,0,0,4.32,8.19,8.19,0,0,0,1.51,3.6A12.26,12.26,0,0,0,12,28.42c.51.54.83.79.94.9s.5.22,0,.22l-4,0c-.18,0-.29,0-.29.18s.07,1.95.18,3.1a10.14,10.14,0,0,0,2.09,4.9,30,30,0,0,0,4.75,4.75,10.58,10.58,0,0,0,4.75,2.23,43.75,43.75,0,0,0,5.18.11,5.17,5.17,0,0,0,3.78-2c1.41-1.62,1.55-5,1.55-6.37a6.15,6.15,0,0,0-.5-2.81A24,24,0,0,0,28.16,30.44Z"/><path class="cls-2" d="M22.87,36.63a6.8,6.8,0,0,1-5.11,2.52,7.12,7.12,0,0,1-4.83-1.3,8.39,8.39,0,0,1-3.06-4.1,14,14,0,0,1-.54-3.2c0-.11,0-.15.22-.15l4.1,0c.18,0,.26,0,.26.14a7.52,7.52,0,0,0,.28,1.87,2.9,2.9,0,0,0,2.81,2,2.59,2.59,0,0,0,2.92-2.73A2.89,2.89,0,0,0,18.22,29a18.93,18.93,0,0,0-3.38-.86,6.81,6.81,0,0,1-3.78-2.34,9,9,0,0,1-1.83-5.47,7.06,7.06,0,0,1,1.9-4.54,7.55,7.55,0,0,1,5.12-2.41,8.06,8.06,0,0,1,5.36,1.84,7.12,7.12,0,0,1,2.52,4.14,10.48,10.48,0,0,1,.25,2.73c0,.26-.07.22-.25.22l-4-.14c-.26,0-.26,0-.26-.18s-.18-2.45-1.51-3.24a2.94,2.94,0,0,0-3.56.28,2.84,2.84,0,0,0-.54,3.24c.58,1.12,1.44,1.52,4,2a8.17,8.17,0,0,1,5.22,3.46,6.48,6.48,0,0,1,1.08,3.89A7.18,7.18,0,0,1,22.87,36.63Z"/></svg>