<svg xmlns="http://www.w3.org/2000/svg" viewBox="0 0 1600 400"><path d="M152.17,223.41c-6.61-8.06-9.5-11.16-10.12-11.78-.63-.41-.63-.62,0-.41.62,0,10.33.41,13.43.41,2.89,0,9.09,0,10.33-.62,1-.41,1.86-1.65,1.86-3.51,0-2.07.41-8.68-.62-14.06a45.23,45.23,0,0,0-8.68-20c-5.58-7.24-13.85-16.75-21.08-23.15-7-6.62-9.51-9.09-16.53-14.06-6.82-5-13-10.12-20.67-11.78-7.23-2.06-16.33-3.51-25.21-1.24-9.3,2.07-15.3,5-20.67,10.75C49,139.29,44.08,145.08,41.6,154.59a50.3,50.3,0,0,0-.2,24.8c1.65,7.85,3.71,14.05,8.68,20.67,4.75,6.82,6.4,8.68,9.5,11.78,2.9,3.1,4.75,4.54,5.37,5.16.83.62,2.9,1.24-.2,1.24-2.89,0-21.91.21-22.94.21s-1.66-.21-1.66,1c0,1,.42,11.16,1,17.78.62,6.81,3.92,17.35,12,28.1C61,275.7,71.36,285.21,80.46,292.64c9.71,7.65,20.87,12.2,27.28,12.82,6.41.82,24.8,1,29.76.62,5.58-.62,13.84-1.86,21.7-11.37,8.06-9.3,8.88-28.93,8.88-36.58,0-7.44-1-12.6-2.89-16.12A138.58,138.58,0,0,0,152.17,223.41Z" style="fill:#5c5c5c"/><path d="M119.55,259C109.84,270.74,98.06,273,90.2,273.43c-8.26.41-16.53,0-27.69-7.44C51.56,258.34,48,249.66,44.94,242.43a79.83,79.83,0,0,1-3.1-18.4c0-.62,0-.83,1.24-.83l23.56-.2c1,0,1.45,0,1.45.82a44,44,0,0,0,1.65,10.75c1.45,5.16,6.41,11.37,16.12,11.78,9.92.62,17.16-6.2,16.74-15.71-.2-9.5-5.57-12.81-9.71-15.29-3.93-2.27-12.81-3.31-19.43-5A38.94,38.94,0,0,1,51.76,197c-7.44-8.48-10.12-21.08-10.54-31.42-.2-10.33,5.17-19,11-26,6-6.82,18-13.84,29.34-13.84,11.58,0,21.29,2.89,30.8,10.53,9.51,7.44,12.4,16.12,14.46,23.77a59.12,59.12,0,0,1,1.45,15.71c0,1.45-.41,1.24-1.45,1.24s-21.49-.83-23.14-.83c-1.45,0-1.45-.2-1.45-1,0-.62-1-14.05-8.68-18.6a17,17,0,0,0-20.46,1.65c-4.34,3.93-6.41,12.2-3.1,18.6s8.27,8.68,23.15,11.37c15.29,2.69,24.59,12.4,30,19.84a37.47,37.47,0,0,1,6.21,22.32C129.06,237.88,129.06,247.38,119.55,259Z" style="fill:#fff"/><path d="M263.54,126.73a5.18,5.18,0,0,0-3.51-1.24c-1.45,0-95.69-1-97.14-1-1.65.21-2.68.62-2.68,3.72,0,1.24-.21,30.79,0,31.41a2.85,2.85,0,0,0,1,2.48c.83,1,28.93,27.08,29.55,27.7,1,.82,1.24,1,1.24,2.27,0,1,.42,80.81.21,82a3.73,3.73,0,0,0,.83,2.89c.62,1,23.14,22.73,24.18,23.56,1,1,3.1,3.1,4.55,3.1,1.23.21,36.58.21,38.23.21,1.65-.21,2.48-.41,2.27-2.07,0-2.07.83-105.81.83-106.85,0-1.24.41-1.65,1.65-1.65l22.32-.21c.83,0,1.24-.82,1.24-1.86s0-37,.42-38.44a3.75,3.75,0,0,0-1-2.89C287.1,149.05,264.57,127.56,263.54,126.73Z" style="fill:#5c5c5c"/><path d="M251.59,155.05c-.62,0-8.06.2-13.43.2-5.58,0-14.26.21-15.71.21-1.24,0-2.07.62-2.07,1.65-.2,1,.21,114.09.21,114.7.21,1,0,1-.41,1s-7.44.2-12,.2c-4.75,0-12-.2-12.4-.2-.21,0-.41,0-.41-.83,0-.62-1-114.49-1-115.32a1.51,1.51,0,0,0-1.24-1.45c-.82-.2-29.76-.62-30.38-.62s-.83,0-.83-.62c0-.82-.62-23.56-.41-24.59.21-.62.21-1.24,1.45-1,1,.2,26.66.2,41.75,0,15.08,0,45.67.2,46.08,0,.62,0,1,0,1,.82a91.64,91.64,0,0,1,.2,12c0,5,.42,12.4.42,13C252.42,155.05,252.42,155.05,251.59,155.05Z" style="fill:#fff"/><path d="M356.77,156.29c-4.34-3.31-7.23-3.93-13-3.93-6,.21-10.34,2.89-11.78,6a21.5,21.5,0,0,0-3.31,12c-.21,3.31-.21,11.37,0,25.42,0,14.05.21,29.76,1,34.1s1,15.91,16.74,15.71c15.71-.42,15.71-16.12,15.71-20.67-.2-4.75-.41-50.63-.62-56C361.32,163.11,360.69,159.59,356.77,156.29Z" style="fill:#fff"/><path d="M411.33,161.25c-4.13-4.76-10.33-12-18-18.4a186.55,186.55,0,0,0-23.56-16.33c-4.76-2.68-14.88-7.43-31-6-15.92,1.24-26.87,11.58-31.83,18.6-5.17,7-7.85,15.29-8.06,21.5s-.62,17.77-1,35.34c-.21,17.36-1.66,39.06.41,46.5C300.34,249.7,303.45,259,309,266a146.16,146.16,0,0,0,29.55,26.87c13.64,9.09,19.63,11.15,27.49,12,8.27,1,21.7,1.65,30.38-.2,8.47-2.07,16.32-6.41,20.87-13.23,4.55-6.62,6-11.57,6.2-15.5.42-3.51,1.24-20.26,1.45-45.47.21-25,.62-39.27-2.48-49A56.83,56.83,0,0,0,411.33,161.25Z" style="fill:#5c5c5c"/><path d="M386.15,234.61c-.83,9.3-6.61,19.43-14.67,27.49-8.06,7.64-14.06,9.71-28.32,10.54-14.67,1.24-22.53-3.93-31.62-12.4-9.3-8.26-11.57-17.57-12-23.15-.41-6-.2-20.25.21-40.3.41-19.84.21-26.24.41-32.24.21-6.61,3.73-16.32,10.13-24.18,9.92-12.4,19-14.88,30.18-15.29,11.36-.41,20.66,2.07,31.62,11,10.74,8.89,13.43,21.08,14,29.35s.62,17.57.83,34.1C387,216.22,386.77,225.31,386.15,234.61Z" style="fill:#fff"/><path d="M552.5,165.17c-3.51-4.13-16.94-19.84-29.14-28.52-12-8.26-20.66-13.22-30-14.47-9.72-.82-20-1.24-24.39-.41-3.52,1-14.68,4.75-20.46,12-6,7-11.78,14.05-12.4,29.76-.62,15.91-.83,65.1.2,72.75,1,7.44,3.52,18,13.85,31.41,11.37,13.23,26.46,27.07,38.24,32.45,12,5.58,17.77,6.4,24,6.82s20.87,1.24,28.73-1.24,14.67-7.23,17.15-16.74c3.1-10.13,3.51-24,3.51-30.8,0-6.4-.41-13.43-.82-14.46-.21-1-.21-1.87-2.07-4.34a71.83,71.83,0,0,0-7.44-9.1c-2.89-4.34-6.2-8.06-7.23-9.5-.62-1.24-.62-1.24,0-1.24,1.65-.21,14.46-.21,15.91-.21s2.07.83,2.07-.83c0-1.24.41-16.12.41-21.28,0-5-.83-13.23-2.27-17.16A55.15,55.15,0,0,0,552.5,165.17Z" style="fill:#5c5c5c"/><path d="M519.68,250.53c-7.86,12.6-16.74,21.08-31.62,22.32-14.88,1-28.73-2.9-37.41-10.75-8.47-7.44-13-15.09-13.64-26.24-1.24-10.75-1-35.14-1-52.29.21-16.74.21-21.5,1.87-28.32a44.73,44.73,0,0,1,12-19.63c6-5.79,13.23-10.13,20.88-10.34,7.44-.41,14.05-.82,21.7,1.24,7.64,2.28,20.25,7.24,26,17.37,5.58,10.12,6.61,14.46,7,20.46.41,6.61.41,16.94.41,18.18s.21,1.24-.62,1.45c-1,0-26.66.41-27.28.41-.83,0-.83-.82-1-1.24-.2-1.44.63-13.84-1-19.42-1.24-5.38-3.1-6.82-6.41-9.1-3.51-1.86-10.74-2.68-15.5,0-4.13,3.51-7.44,6.82-7.85,15.5s-1,41.55-1.24,52.29c0,10.34,1.65,17.15,7.23,21.08,5.17,3.51,13.85,2.48,17.78-.62,3.92-3.72,6.2-6.61,6.82-13.43.41-6.41.62-13.64.62-15.09,0-1.24.21-1.45,1.24-1.24.82,0,25,.21,26.66.21,1.24,0,1,.2,1,1C526.09,215.6,527.94,237.5,519.68,250.53Z" style="fill:#fff"/><path d="M717.44,292.27c-.82-1.44-20.46-39.47-26.24-50.84-5.58-11-17.78-36.16-18.4-37s-.62-1,0-1.65c.83-.62,17.36-17.78,22.74-23.36,5.78-6.2,19.22-19.63,20.25-21.08a3,3,0,0,0,1.24-2.68V152a2.65,2.65,0,0,0-.82-2.28c-.83-.62-24.6-22.52-26.05-24-1.24-1.24-2.06-1.65-3.3-1.45-1.45.21-46.09.42-47.74.42-1.45.2-1.66.61-2.69,1.65-1,1.24-12.19,12.61-13.23,13.43-.82,1-1,1-1.44,0-.83-1-2.9-4.34-5.38-7.64a49.17,49.17,0,0,0-5.58-6.62,2,2,0,0,0-2.27-.82H579.39a8.08,8.08,0,0,0-3.52.82c-.82.41-1.44,2.69-1.44,2.69,0,.83-.62,5.16-.83,6.82-.21,8.68-.62,36.58-.62,49.39,0,9.3.83,87.22.83,88.05a5.51,5.51,0,0,0,1,3.1c.83,1,31.62,28.1,32.24,28.93,1,.62,1.45,1,2.27,1,1,0,36-.62,37.21-.82s2.68-.83,2.48-3.31V277.81c-.21-.83,0-.83,1.24,0,.82.82,8.27,6,16.94,13.22,8.27,6.82,14.47,11.79,15.51,12.61a5.37,5.37,0,0,0,3.51,1c1.65.2,27.69,0,29.76-.21,1.65,0,2.07-.83,2.07-2.07a42,42,0,0,0,.2-7.23A6.13,6.13,0,0,0,717.44,292.27Z" style="fill:#5c5c5c"/><path d="M679.45,272l-27.28.21c-.83,0-.83,0-1.24-.83-.41-1-19.84-40.51-24.59-50.43-5-10.33-13.85-28.52-14.47-30-.62-1-.83-.83-1.45-.42-.82.62-6.4,7-6.82,7.44s-.41.83-.41,1.66,0,71.92.21,72.75c0,1-.42.82-1,.82H576.53c-.62.21-.83-.21-.83-.82s-.82-78.75-.82-90.53c.2-12,.2-52.08.2-52.9,0-.62,0-.62.62-.83.42,0,7.65,0,14.26-.21,6.2,0,12.82.21,13.44.21,1,0,1.24.21,1,1,0,.83,0,8.47-.41,16.95-.21,8.06-.21,12.61-.21,12.61v1.65c0,1.65.41,1.24,1.24.83,1.24-.62,15.5-14.47,21.08-19.43a164.88,164.88,0,0,0,11.78-12.2,3.21,3.21,0,0,1,2.69-1h32.45c1.85-.2.82.42.41.83-.62.62-14.47,14.67-20.05,20.05-5.37,5.78-20.66,19.63-21.7,20.87-1,1-.83,1.24-.41,2.07.41,1.24,24,48.15,29.35,58.9,6.19,10.74,19,37.82,19.63,39.06C680.9,271.81,680.49,272,679.45,272Z" style="fill:#fff"/><path d="M781.12,161A19.2,19.2,0,0,0,770,155.87c-2.48-.2-4.34-.41-7.65-.41a33,33,0,0,0-6.2.83,1.18,1.18,0,0,0-.82,1.24c0,.82-.62,87-.62,87.62s1,1.24,2.48,1.66,12.81.83,15.91,0c3.31-.83,5.37-1.66,7.44-4.14,2.07-2.27,3.72-4.34,4.13-7.44.62-2.89,1.24-23.55,1.24-34.3s.42-24.39,0-27.9C785.46,169.72,785.05,165.38,781.12,161Z" style="fill:#fff"/><path d="M845.81,197.83c-.42-6.62-.62-8.68-2.48-12.61a120.33,120.33,0,0,0-12.19-20.67,117.18,117.18,0,0,0-16.95-18.39c-4.76-4.34-14.06-12.82-23.15-16.74-8.89-4.34-13.64-3.93-21.29-4.14-8.06-.2-38.23-.2-40.3-.2-2.27.2-2.27.41-2.27,1.65-.21,1.86-1,75.23-1.24,92.59,0,17.15-.21,52.49-.21,54.56.21,1.86,0,2.07,1,3.1,1,.83,24.18,23.56,26,25.21,1.65,1.25,1.44,1,3.92,1.25,2.69.2,53.74.82,61,0,7-.83,13-2.49,18.6-9.1,5.79-6.41,8.27-9.92,9.09-19,1-9.1.62-21.29.62-34.1S846,204.23,845.81,197.83Z" style="fill:#5c5c5c"/><path d="M808.85,212.09c-.21,10.33-.21,19-.42,24a36.13,36.13,0,0,1-4.75,15.29c-3.1,5.79-6.4,10.54-14.67,15.71-8.27,5-13.44,4.75-25.42,5.38-12,.82-35.35.61-36.17.41-.62-.41-.41-.41-.41-1.45.2-.83.41-78.53.41-86.39,0-7.44.82-55.18.82-55.8,0-.82.63-.41,2.07-.41s37.41.21,44,.82,16.13,4.55,22.53,11.17c6.61,6.61,11.78,16.94,12,25.42S809.06,202,808.85,212.09Z" style="fill:#fff"/><path d="M981.61,239.78a40.76,40.76,0,0,0-7-9.3c-.62-.83-.62-1.24.21-2.27,1-1,7-8.68,8.47-15.5,1.45-6.62,1.45-14.68-2.07-25.22-3.1-9.92-8.06-15.08-12.6-20.66-4.14-5.38-19.43-21.91-28.11-28.32-8.89-6.4-19.22-11.16-31.62-12.19-12.2-1.24-44.23-1.65-47.54-1.45-3.3.41-4.54.41-4.54,2.69-.21,1.65,0,142.18,0,144.05a5.28,5.28,0,0,0,1.65,4.34c.83.83,27.49,26.24,28.11,26.87a2.38,2.38,0,0,0,2.06.82c.83,0,27.7.21,29.35.21,1.65-.21,2.89-.62,2.89-1.86-.62-1.24.21-18.19.21-20.05,0-1.45.83-2.27,2.69-.62,1.86,1.86,24.18,19.22,27.9,20.87a17.76,17.76,0,0,0,8.68,1.66c2.48,0,11.37.62,14.88-.83,3.93-1.24,7-5,8.06-6.41a6,6,0,0,0,1-3.1c0-1-.21-20.46-.41-29.75C983.67,254,984.5,245.77,981.61,239.78Z" style="fill:#5c5c5c"/><path d="M957.22,255.9c-.41,1.45-.62,4.55-5.17,10.54-4.75,5.79-8.89,5.79-14,6-5,.2-8.89-1.24-13.64-7.24-5.17-5.78-5-22.11-5.17-31.62,0-9.5-2.89-12.81-8.06-16.74-5.37-3.51-21.49-2.27-22.32-2.07-1,.21-1.65.21-1.65,1.86S887,270,887,271.2c.21,1.44-.41,1.44-1.45,1.65H861.94c-1.24,0-1.24-1-1.24-2.07,0-1.24-.41-43.81,0-69,.21-25.83-.41-71.71-.2-72.95.2-.62,0-.83,1-1.24,1.24,0,24.59.41,31.21.83,6.61.2,16.94.41,28.52,6,11.16,5.58,17,15.5,20.87,22.53,3.72,7,5.17,17.56,2.07,28.52-2.89,10.95-8.06,15.29-8.68,16.12-.42.62-.83,1,0,2.06.62,1,4.54,5.58,7,11,2.69,5.58,2.9,14.67,3.11,21.08.2,6.61.2,8.06,2.47,12,2.28,4.34,7.86,5.78,8.48,6.19C957.63,254.25,957.63,254.25,957.22,255.9Z" style="fill:#fff"/><path d="M909.48,157.32c-2.48-1-5.38-1.86-10.75-1.86a93.23,93.23,0,0,0-10.75.41c-.82.21-1.44.42-1.44,1.45-.21,1.45.41,26.66.41,27.9s.21,2.89,2.48,2.89c2.48.21,14.26,1,19.22-.82,4.76-1.66,10.33-3.93,11-14.26C920.22,162.9,911.75,158.35,909.48,157.32Z" style="fill:#fff"/><path d="M1104.39,161.25c-4.13-4.76-10.33-12-18-18.4a187.27,187.27,0,0,0-23.56-16.33c-4.76-2.68-14.88-7.43-31-6-15.92,1.24-26.87,11.58-31.83,18.6-5.17,7-7.86,15.29-8.06,21.5s-.62,17.77-1,35.34c-.21,17.36-1.66,39.06.41,46.5,2.06,7.23,5.16,16.53,10.74,23.56a146.55,146.55,0,0,0,29.56,26.87c13.64,9.09,19.63,11.15,27.49,12,8.26,1,21.7,1.65,30.38-.2,8.47-2.07,16.33-6.41,20.87-13.23,4.55-6.62,6-11.57,6.2-15.5.41-3.51,1.24-20.26,1.45-45.47.2-25,.62-39.27-2.48-49A56.83,56.83,0,0,0,1104.39,161.25Z" style="fill:#5c5c5c"/><path d="M1081.45,234.61c-.83,9.3-6.62,19.43-14.68,27.49-8.06,7.64-14,9.71-28.31,10.54-14.67,1.24-22.53-3.93-31.62-12.4-9.3-8.26-11.57-17.57-12-23.15-.41-6-.21-20.25.21-40.3.41-19.84.21-26.24.41-32.24.21-6.61,3.72-16.32,10.13-24.18,9.92-12.4,19-14.88,30.17-15.29,11.37-.41,20.67,2.07,31.62,11,10.75,8.89,13.44,21.08,14.06,29.35s.62,17.57.83,34.1C1082.28,216.22,1082.07,225.31,1081.45,234.61Z" style="fill:#fff"/><path d="M1049.83,156.29c-4.34-3.31-7.24-3.93-13-3.93-6,.21-10.34,2.89-11.78,6a21.5,21.5,0,0,0-3.31,12c-.21,3.31-.21,11.37,0,25.42,0,14.05.21,29.76,1,34.1s1,15.91,16.74,15.71c15.71-.42,15.71-16.12,15.71-20.67-.21-4.75-.42-50.63-.62-56C1054.37,163.11,1053.75,159.59,1049.83,156.29Z" style="fill:#fff"/><path d="M1177.36,156.49c-3.51-.82-13.43-1.24-15.71-.82s-2.89.2-2.89,1.65c0,2.27.21,25,0,26.66,0,1.86.62,2.69,2.69,2.69,2.27,0,11.57.62,17-1,5.37-2.06,11.16-4.13,11.36-14.46S1181.08,157.32,1177.36,156.49Z" style="fill:#fff"/><path d="M1200.92,133.14c-8.89-5.37-13.43-7.86-24.38-8.27-11.37-.41-42.58-.41-44.23,0-2.07.62-3.52.41-3.52,2.69-.21,1.86,0,60.76,0,85.15.21,24.18,0,56.83,0,59.1a5,5,0,0,0,1,3.73c.82,1,8.26,9.29,13.43,14.46s10.33,9.51,11.58,10.75c1.24,1.44,2.27,1.86,4.75,2.07,2.06.2,34.3.82,36,.62,1.65,0,2.27.2,2.68-2.9,0-2.89.42-45.88.42-47.32.21-1.87-.21-2.49,1.65-2.49,1.66,0,17.78-1.45,28.52-8.06,11.16-6.2,25-13.22,24.39-37.82-.41-24.8-11-32.44-14.88-37.4C1234.4,162.07,1209.81,138.3,1200.92,133.14Z" style="fill:#5c5c5c"/><path d="M1205.05,201.55c-6.4,7-11.78,9.5-19.83,10.74-8.48,1-22.53,1-24,1-1,0-2.06-.21-1.86,1.24.21,1.24-.62,17.36-.62,29.55V271c0,1.86-.21,2.06-2.27,2.06-1.65.21-20.47-.41-22.53-.41s-1.45-.83-1.45-2.27c0-1.66-.2-48.78-.41-70.48-.21-21.49.21-69,.41-70.27.21-1,.21-.82,1.87-.82,1.85-.21,32,0,44.63.41,12.41.62,20.88,7.86,26.46,14.06,5.58,6.4,11.78,15.29,11.78,28.1C1217.46,184.39,1211.25,194.73,1205.05,201.55Z" style="fill:#fff"/><path d="M1370,222.63c-6.61-8.06-9.5-11.16-10.13-11.78-.61-.42-.61-.62,0-.42.63,0,10.34.42,13.44.42,2.89,0,9.09,0,10.33-.62,1-.42,1.86-1.66,1.86-3.52,0-2.06.42-8.68-.62-14.05a45.31,45.31,0,0,0-8.68-20c-5.58-7.23-13.84-16.74-21.08-23.14-7-6.62-9.51-9.1-16.53-14.06-6.82-5-13-10.13-20.67-11.78-7.23-2.07-16.33-3.51-25.21-1.24-9.31,2.07-15.3,5-20.67,10.75-5.16,5.37-10.13,11.16-12.61,20.67a50.3,50.3,0,0,0-.2,24.8c1.65,7.85,3.71,14,8.68,20.66,4.75,6.82,6.41,8.69,9.5,11.78,2.89,3.1,4.76,4.55,5.38,5.17.82.62,2.89,1.24-.21,1.24-2.89,0-21.91.21-22.94.21s-1.65-.21-1.65,1c0,1,.41,11.16,1,17.77.62,6.82,3.92,17.36,12,28.11,7.85,10.33,18.18,19.84,27.28,27.28,9.71,7.65,20.87,12.19,27.28,12.82,6.4.82,24.8,1,29.76.61,5.58-.61,13.85-1.85,21.7-11.36,8.06-9.3,8.89-28.93,8.89-36.58,0-7.44-1-12.61-2.89-16.12A139.21,139.21,0,0,0,1370,222.63Z" style="fill:#5c5c5c"/><path d="M1339.61,258.17c-9.71,11.78-21.49,14.06-29.35,14.47-8.26.41-16.53,0-27.69-7.44-11-7.64-14.47-16.32-17.57-23.56a80.36,80.36,0,0,1-3.1-18.39c0-.62,0-.83,1.24-.83l23.56-.21c1,0,1.45,0,1.45.83a44,44,0,0,0,1.65,10.75c1.45,5.16,6.41,11.36,16.12,11.78,9.92.62,17.16-6.2,16.75-15.71-.21-9.5-5.59-12.81-9.72-15.29-3.93-2.28-12.81-3.31-19.43-5a38.94,38.94,0,0,1-21.7-13.44c-7.44-8.47-10.12-21.08-10.54-31.41-.21-10.34,5.17-19,11-26,6-6.82,18-13.85,29.34-13.85,11.58,0,21.29,2.9,30.8,10.54,9.51,7.44,12.4,16.12,14.46,23.77a59.12,59.12,0,0,1,1.45,15.71c0,1.44-.41,1.24-1.45,1.24s-21.49-.83-23.14-.83c-1.45,0-1.45-.21-1.45-1,0-.62-1-14.06-8.68-18.6a16.93,16.93,0,0,0-20.46,1.65c-4.34,3.93-6.41,12.19-3.1,18.6s8.27,8.68,23.15,11.37c15.29,2.68,24.59,12.4,30,19.84a37.44,37.44,0,0,1,6.19,22.32C1349.12,237.09,1349.12,246.6,1339.61,258.17Z" style="fill:#fff"/><path d="M1404.88,260.59a2.2,2.2,0,0,0-1.69-.72c-1,0-11.83,0-12.55.07-.88.17-.64.49-.64.89-.08.64-.4,10.61-.4,11.42a2.64,2.64,0,0,0,.72,1.85c.32.56,4,3.94,7.16,7.08,3.14,3,4.42,4.1,4.74,4.34a1.55,1.55,0,0,0,1.13.24c.32,0,4.82.25,6.51.16s3.55-.16,3.86-.24.57-.48.65-1,.16-12.23.16-12.87,0-.65-.56-1.29S1405.28,261.07,1404.88,260.59Z" style="fill:#5c5c5c"/><path d="M1400.86,272.33c0,.64-.08.81-.56.81s-7.72-.41-8.13-.41c-.56,0-.48-.4-.48-.88v-10c0-.32.08-.15.64-.15l8.21-.09c.4,0,.48.16.48.81C1401,262.92,1400.86,271.77,1400.86,272.33Z" style="fill:#fff"/><path d="M1466.87,223.67c-.72-.64-1.61-1.93-3.86-3.94a48.12,48.12,0,0,0-4.5-3.45,3.08,3.08,0,0,0-2.09-.73l-13.11-.08c-.65,0-.73,0-.73.81,0,.64-.08,4.74-.08,5.38s.24,1.05-.72.16c-1.13-.88-8.77-5.22-9.49-5.71a3.12,3.12,0,0,0-2.09-.64c-1,0-11,.08-11.75.16s-.8.16-.88.81c0,.48-.16,24.45-.24,29.83s.08,27.27.08,28c0,.88.08,1.21.72,1.69s9.33,8.52,9.81,9a1.76,1.76,0,0,0,1.29.4c.49.08,12.79.16,13.51.08s1.21,0,1.21-1v-5.06c0-.64,0-.88.72-.25s7.72,5.07,8.37,5.56a3.93,3.93,0,0,0,2,.64c1,0,11.74.08,12.22,0s.73-.57.8-1.93-.32-55.82-.39-57.18S1467.68,224.4,1466.87,223.67Z" style="fill:#5c5c5c"/><path d="M1454.24,273c-.48,0-8.93.32-9.41.32s-.48-.15-.8-.72-13.92-32.25-14.24-32.73c-.16-.56-.56-1.45-.56-.16s.25,31.12.25,32.17-.09.88-.65.88c-.48.17-9.17.32-9.57.32s-.33-.15-.33-.64-.15-17.13-.07-24.13.16-30.32.07-30.72c0-.24-.15-.48.41-.56s10.05-.32,10.38-.32.39.08.56.48,4.26,9.57,6,13.43,6.19,14.88,7.08,16.81.8,1,.8-.08v-29.6c0-.72.16-.72.4-.72s8.77-.32,9.25-.32a.56.56,0,0,1,.64.48c0,.4.24,54.61.24,55.17S1454.65,273,1454.24,273Z" style="fill:#fff"/><path d="M1520.49,226.09c0-.57.16-.65-.33-1.13s-10-8.85-10.37-9.09a1.64,1.64,0,0,0-1-.32c-.56,0-34.18-.16-34.82,0s-1,.24-.88.8c.07.89-.57,56.3-.57,57s.48.88.64,1.12,10.86,10.14,11.19,10.38a1,1,0,0,0,.8.32l34.58-.32c.56,0,.72-.09.72-.81s0-11.58-.07-11.9a1.33,1.33,0,0,0-.33-.88c-.32-.41-10.69-10.62-10.93-10.86s-.09-.4.08-.49.16-.32.16-.64-.24-9.08-.24-9.49a.88.88,0,0,0-.24-.72c-.17-.24-6.68-9.17-7-9.57s-.24-.32.32-.32c.4.08,17.21.24,17.85.24.49-.09.49-.16.57-.73S1520.4,226.57,1520.49,226.09Z" style="fill:#5c5c5c"/><path d="M1506.65,226.73c0,.4,0,.56-.72.72s-20.35.24-20.75.24-.48.16-.48.33c0,.56.08,10.37.08,10.69s.08.49.4.49l11.66.15c.24,0,.24-.07.16.33s-.16,9.41-.16,9.73,0,.4-.4.4-10.54,0-11.1.08c-.4.08-.64.33-.56.65s-.08,10.45,0,10.93.08.57.48.64,20.67,0,21.15-.07.48.07.48.48-.08,9.33,0,9.73.16.56-.32.56c-.64,0-32.09.24-32.49.33s-.4,0-.4-.41c-.16-.4.72-54.61.72-55.25s.16-.64.64-.64,30.81.16,31.21.24.4.24.4.48S1506.73,226.33,1506.65,226.73Z" style="fill:#fff"/><path d="M1573.06,225.12c-.24-.32-9-8.68-9.41-9a2,2,0,0,0-1.37-.48l-37.8-.4c-.64.08-1,.24-1,1.45,0,.48-.09,12,0,12.22a1.13,1.13,0,0,0,.4,1c.32.4,11.25,10.53,11.5,10.77.4.32.48.4.48.88s.16,31.45.08,31.94a1.45,1.45,0,0,0,.32,1.12c.24.4,9,8.85,9.41,9.17s1.21,1.21,1.77,1.21,14.24.08,14.88.08,1-.16.88-.81c0-.8.33-41.17.33-41.58s.16-.64.64-.64l8.69-.08c.32,0,.48-.32.48-.73s0-14.39.16-14.95A1.46,1.46,0,0,0,1573.06,225.12Z" style="fill:#5c5c5c"/><path d="M1559.87,227.13c-.24,0-3.14.08-5.23.08s-5.55.08-6.11.08-.81.24-.81.64.09,44.4.09,44.64c.07.4,0,.4-.17.4s-2.89.08-4.66.08-4.67-.08-4.83-.08-.16,0-.16-.32-.4-44.55-.4-44.87a.59.59,0,0,0-.48-.57c-.32-.08-11.59-.24-11.83-.24s-.32,0-.32-.24-.24-9.17-.16-9.57c.08-.24.08-.48.57-.4s10.37.08,16.24,0,17.77.08,17.94,0,.4,0,.4.32a36.05,36.05,0,0,1,.08,4.66c0,1.93.16,4.83.16,5.07S1560.19,227.13,1559.87,227.13Z" style="fill:#fff"/><path d="M356.59,156.25c-4.34-3.31-7.23-3.93-13-3.93-6,.21-10.34,2.9-11.78,6a21.48,21.48,0,0,0-3.31,12c-.21,3.3-.21,11.36,0,25.42,0,14.05.21,29.76,1,34.1s1,15.91,16.74,15.7c15.7-.41,15.7-16.12,15.7-20.66-.2-4.76-.41-50.64-.62-56C361.14,163.07,360.51,159.56,356.59,156.25Z" style="fill:#5c5c5c"/><path d="M781.12,161A19.2,19.2,0,0,0,770,155.87c-2.48-.2-4.34-.41-7.65-.41a33,33,0,0,0-6.2.83,1.18,1.18,0,0,0-.82,1.24c0,.82-.62,87-.62,87.62s1,1.24,2.48,1.66,12.81.83,15.91,0c3.31-.83,5.37-1.66,7.44-4.14,2.07-2.27,3.72-4.34,4.13-7.44.62-2.89,1.24-23.55,1.24-34.3s.42-24.39,0-27.9C785.46,169.72,785.05,165.38,781.12,161Z" style="fill:#5c5c5c"/><path d="M909.48,157.32c-2.48-1-5.38-1.86-10.75-1.86a93.23,93.23,0,0,0-10.75.41c-.82.21-1.44.42-1.44,1.45-.21,1.45.41,26.66.41,27.9s.21,2.89,2.48,2.89c2.48.21,14.26,1,19.22-.82,4.76-1.66,10.33-3.93,11-14.26C920.22,162.9,911.75,158.35,909.48,157.32Z" style="fill:#5c5c5c"/><path d="M1049.83,156.3c-4.34-3.31-7.24-3.93-13-3.93-6,.21-10.34,2.9-11.78,6a21.47,21.47,0,0,0-3.31,12c-.21,3.31-.21,11.37,0,25.42,0,14.06.21,29.77,1,34.11s1,15.91,16.74,15.7c15.71-.41,15.71-16.12,15.71-20.66-.21-4.76-.42-50.64-.62-56C1054.37,163.12,1053.75,159.61,1049.83,156.3Z" style="fill:#5c5c5c"/><path d="M1177.74,156.49c-3.51-.82-13.43-1.24-15.7-.82s-2.89.2-2.89,1.65c0,2.27.2,25,0,26.66,0,1.86.62,2.69,2.68,2.69,2.28,0,11.57.62,17-1,5.37-2.06,11.16-4.13,11.37-14.46S1181.47,157.32,1177.74,156.49Z" style="fill:#5c5c5c"/></svg>