<svg id="Layer_1" data-name="Layer 1" xmlns="http://www.w3.org/2000/svg" viewBox="0 0 310 310"><defs><style>.cls-1{fill:#fff;}</style></defs><g id="Mini_Icon" data-name="Mini Icon"><path class="cls-1" d="M113.65,209.77a46.44,46.44,0,0,1-34.81,17.08A49,49,0,0,1,46,218c-13.14-9.2-17.08-19.38-21-27.92A120.34,120.34,0,0,1,21,168.38c0-.66,0-1,1.65-1l27.92-.33c1.31,0,1.64,0,1.64,1a43.48,43.48,0,0,0,2,12.81,20.13,20.13,0,0,0,19,13.8c11.83.66,20.37-7.23,20-18.72-.33-11.17-6.57-15.11-11.5-18.07s-15.11-3.94-23-5.91a46.19,46.19,0,0,1-25.95-16.1C24,125.68,20.7,110.9,20.37,98.42,20,86.26,26.61,75.75,33.51,67.54A51.25,51.25,0,0,1,68.32,51.11,54.22,54.22,0,0,1,104.79,63.6c11.16,8.87,14.78,19.05,17.08,28.25a72.35,72.35,0,0,1,1.64,18.72c0,1.64-.33,1.31-1.64,1.31s-25.63-1-27.6-1-1.64-.33-1.64-1.32-1.31-16.75-10.18-22a20.24,20.24,0,0,0-24.31,2,19,19,0,0,0-3.61,22c3.94,7.56,9.85,10.19,27.59,13.47a56.89,56.89,0,0,1,35.8,23.65,42.41,42.41,0,0,1,7.23,26.61C124.82,184.8,124.82,196,113.65,209.77Z"/><path class="cls-1" d="M113.65,208.46a46.44,46.44,0,0,1-34.81,17.08A49,49,0,0,1,46,216.67c-13.14-9.2-17.08-19.38-21-27.92a99.61,99.61,0,0,1-3.62-22c0-.66,0-1,1.65-1l27.92-.33c1.31,0,1.64,0,1.64,1a43.48,43.48,0,0,0,2,12.81,20,20,0,0,0,19,14.13c11.83.65,20.37-7.23,20-18.73-.33-11.17-6.57-15.11-11.5-18.06s-15.11-3.95-23-5.92a46.14,46.14,0,0,1-25.95-16.09C24.31,124.37,21,109.58,20.7,97.1s6.24-22.66,13.13-30.88A51.31,51.31,0,0,1,68.65,49.8a54.11,54.11,0,0,1,36.46,12.48c11.17,8.87,14.79,19,17.08,28.25a68.26,68.26,0,0,1,1.32,18.4c0,1.64-.33,1.64-1.64,1.64s-25.62-1-27.6-1-1.64-.32-1.64-1.31-1.31-16.75-10.51-22a20.3,20.3,0,0,0-24.31,2,19.06,19.06,0,0,0-3.61,22c3.94,7.56,9.85,10.18,27.59,13.47a55.32,55.32,0,0,1,35.48,23.65A44.92,44.92,0,0,1,124.82,174C124.82,183.49,124.82,194.66,113.65,208.46Z"/><path class="cls-1" d="M256.54,100.71c0-10.18-6.24-22.33-14.12-30.22a47.6,47.6,0,0,0-26.94-13.14c-7.88-.65-50.25-1-52.23-1s-2.62-.33-2.62.33-1,57.48-1,66.35c0,9.53-.33,101.5-.33,102.81s-.65,1.65.33,1.65,28.91.65,43-.33,20.37-.66,30.22-6.57a43.56,43.56,0,0,0,17.41-18.73,44.34,44.34,0,0,0,5.58-18.06c.33-5.91.33-16.43.66-28.58S256.54,110.9,256.54,100.71ZM226.65,142.1c0,12.81-.66,37.45-1.31,40.73a16,16,0,0,1-4.93,8.87,15,15,0,0,1-8.87,4.93,91.87,91.87,0,0,1-19,0c-1.64-.33-3-1.31-3-2s.66-103.14.66-104.13a1.52,1.52,0,0,1,1-1.64,25.4,25.4,0,0,1,7.22-1,77,77,0,0,1,9.2.33,24.63,24.63,0,0,1,13.14,6.24,22.9,22.9,0,0,1,5.91,14.46C227.31,113.2,226.65,129.29,226.65,142.1Z"/></g></svg>