<svg xmlns="http://www.w3.org/2000/svg" viewBox="0 0 246.1 199.9"><path d="M221.9,51.3c.1,2.2.1,4.3.1,6.5,0,66.7-50.8,143.7-143.7,143.7h0A143.51,143.51,0,0,1,.9,178.9a96.58,96.58,0,0,0,12,.7,101.31,101.31,0,0,0,62.7-21.7,50.56,50.56,0,0,1-47.2-35.1,48.82,48.82,0,0,0,22.8-.9A50.52,50.52,0,0,1,10.7,72.4v-.6a49.78,49.78,0,0,0,22.9,6.3A50.5,50.5,0,0,1,18,10.7,143.79,143.79,0,0,0,122.1,63.5a50.51,50.51,0,0,1,86-46A101.21,101.21,0,0,0,240.2,5.2,50.86,50.86,0,0,1,218,33.1a100.84,100.84,0,0,0,29-8A99.26,99.26,0,0,1,221.9,51.3Z" transform="translate(-0.9 -1.6)" style="fill:#1d9bf0"/></svg>