<svg xmlns="http://www.w3.org/2000/svg" viewBox="0 0 300 300"><path d="M145.57,8.25l2,3.19-1.11,3.78L69.81,219.38l-3.63,2.53-.89-6.5L141.21,14.13l4.36-5.88Z" style="fill:#963;fill-rule:evenodd"/><path d="M104.37,108.45C94,136.68,83.22,164.64,72.63,192.85c-3,8.05-17,40-3.47,29.89C153.62.23,147.23,18.16,144.81,23.78c6.86-14.33,2.38-25.63-3.56-10.71m-1.33,2.8q-17.3,44.81-34.45,89.64m23.7-55.18c6-13,14.7-45.24,17.56-39.22C121.18,79.09,95.28,147.85,70,216c-8,12.18-.33-13.3,3.12-17.86,18.51-49.28,37-98.8,56.09-147.78Z" style="fill-rule:evenodd"/><path d="M103.36,88c.44-3.67,11-5.44,23.63-3.94s22.49,5.69,22,9.37-11,5.44-23.63,3.94-22.48-5.69-22-9.37" style="fill:#d2d3d5;fill-rule:evenodd"/><path d="M295.33,25.88c-12.4-6.7-51.88-10.89-83.79-15.19-16.65-2.28-27.12-9.06-44.3-6.06C141.62,9.24,135,24.87,130.5,35c-4.94,11.1-8.41,12.3-12,27.68-2.37,9.78-1.82,18.71-.32,23.92,2.91,9.41,40.78.92,51.6.5,36-1.56,75.14,15.17,102.59,18s13.6-25.47,14.52-48.42C287.59,36.75,303.28,30.15,295.33,25.88Z" style="fill:#fff212;fill-rule:evenodd"/><path d="M295.33,25.88c-12.4-6.7-51.88-10.89-83.79-15.19-16.65-2.28-27.12-9.06-44.3-6.06C141.62,9.24,135,24.87,130.5,35a87.8,87.8,0,0,1-4.31,8.35,500.12,500.12,0,0,0,51.5,3.91C238.27,49.32,284,62.9,287,63.77a59.77,59.77,0,0,1-.15-7.17C287.59,36.75,303.28,30.15,295.33,25.88Z" style="fill:#005bba;fill-rule:evenodd"/><path d="M263.75,17.9l-28.42-4.08s-23.79-3.13-34.51-5.31S174,12.37,174,12.37s-2.5,2.33,10.41.54,23,4.54,38.13,4.53S248.09,19.17,263.75,17.9Z" style="fill:#00448c;fill-rule:evenodd"/><path d="M297.52,29.47c-.1,0-10.47,3.39-15.11,23s5.31,46.85,5.37,47.16c4.7-9-1.59-27.28-.94-42.91C287.44,41.46,296.68,34,297.52,29.47Z" style="fill:#e3bd00;fill-rule:evenodd"/><path d="M297.52,29.47c-.1,0-10.47,3.39-15.11,23a45.44,45.44,0,0,0-1.16,9.73c3.22.88,5.16,1.52,5.75,1.59a59.77,59.77,0,0,1-.15-7.17C287.44,41.46,296.68,34,297.52,29.47Z" style="fill:#004a99;fill-rule:evenodd"/><path d="M201.66,89.58l31.09,7,.37-3.08C221.75,94.28,208.35,84.13,201.66,89.58Z" style="fill:#e3bd00;fill-rule:evenodd"/><path d="M272.32,105.12s-16.75-5.61-24.32-8a100.38,100.38,0,0,0-14.88-3.58l-.37,3.08L258,102.82Z" style="fill:#e3bd00;fill-rule:evenodd"/><path d="M237.69,72.81c5.79-2.93,9.72-2.16,7-.77s-3.38,7.25-.78,4,11.05-4.83,21.31-6.43-.71,1.73-7.28,5.28-3.19,3.15-7.45,6.77-13.72,7.84-17,9.26-7.72-1.12-10.76-1.78-7.2-3.88-8.86-5.09C212.19,79,232,75.66,237.69,72.81Z" style="fill:#e3bd00;fill-rule:evenodd"/><path d="M130,73.82c13.18-.75,22.82,2,34.83.11s14.42-7.76,15.87-10.7,13.56-10.68,38.42-13.16,24.32-6.28,31.91-14.24c7.57-7.76,41.82-11.24,33.44-11.94s-36.05,3.37-36.78,5.3c-.86,2.11-15.23,1-28.28,4.9s-25.5-1.52-30.86,3.78S169.7,54.26,159.66,57.4C153.15,59.65,104.55,75.43,130,73.82Z" style="fill:#e3bd00;fill-rule:evenodd"/><path d="M177.69,47.26c14.14.47,27.51,1.55,39.62,3a12.6,12.6,0,0,0,1.83-.18c24.86-2.39,24.32-6.28,31.91-14.24,7.57-7.76,41.82-11.24,33.44-11.94s-36.05,3.37-36.78,5.3c-.86,2.11-15.23,1-28.28,4.9s-25.5-1.52-30.86,3.78a112.58,112.58,0,0,1-10.88,9.39Z" style="fill:#00448c;fill-rule:evenodd"/><path d="M134,27.37Zm9.07-7.69c4.18-3,.63,5.72.93,9.08s4.24,3.32,9.45-2.41,4.46-1.08,14.19-13.42c5-6.45,9.06-8.49,11.84-9a47.44,47.44,0,0,0-12.37.64c-18.21,3.28-26.83,12.22-31.86,20.69C137.47,22.14,139.55,22.38,143.1,19.68Z" style="fill:#00448c;fill-rule:evenodd"/><path d="M184.17,4.52l-7.27-.66C169.64,3.1,163.32,5.47,155.26,8S141,17.62,141,17.62s5.39-4.69,7.8-1.28-.53,2.75.08,6.15,4.78-3.76,8.26-7.68,15.05-8,15.05-8C176.9,3.86,184.17,4.52,184.17,4.52Z" style="fill:#1173db;fill-rule:evenodd"/><path d="M164.37,10.13c1.71-3.33,9.07-5.07,14.83-6.1l-2.3-.17C169.64,3.1,163.32,5.47,155.26,8a30.35,30.35,0,0,0-9.82,5.48,47,47,0,0,0,5.89-1.22,15.3,15.3,0,0,1,8.84.15c1.31-.85,2.81-1.58,4.2-2.32Z" style="fill:#1173db;fill-rule:evenodd"/><path d="M253.83,18.34a98.18,98.18,0,0,0,9.93-.54L255,16.56C254.58,17.12,254.2,17.78,253.83,18.34Z" style="fill:#004a99;fill-rule:evenodd"/><path d="M173.88,12.36s-2.49,2.33,10.41.53a38.53,38.53,0,0,1,13,.55c1.12-1.79,2.23-3.47,3.31-4.95C189.9,6.31,173.88,12.36,173.88,12.36Z" style="fill:#00448c;fill-rule:evenodd"/><path d="M185.21,87.32s-5.8-.28-12.23-.44-29.8,3.31-29.8,3.31,9.7-2.78,19.72-4.91S175.33,84,175.33,84C190.51,85.94,185.21,87.32,185.21,87.32Z" style="fill:#e3bd00;fill-rule:evenodd"/><path d="M171.65,87c-7.78.29-28.38,3.28-28.38,3.28s-2.72-2.54,4-4.16c2.07-.46,20.45-1.8,24.82-2.09Z" style="fill:#e3bd00;fill-rule:evenodd"/><path d="M122.15,62.11c-2.25,7.89-4.25,2.72-2.38,11.5s.16,7.17,3.59,12.21a12.15,12.15,0,0,0,9,5.19s-2.26,1.24-9.74-1.06-5.27-6.57-5.83-15.39,4.75-22.2,4.75-22.2l4.21-8.26C122.19,52.44,124.39,54.22,122.15,62.11Z" style="fill:#f8ee5c;fill-rule:evenodd"/><path d="M139.25,198.37c-6.75-8.17-9.59-11.12-10.18-12s-.59-.59,0-.36,10.41.36,13.49.36a51.48,51.48,0,0,0,10.41-.59,3.74,3.74,0,0,0,1.89-3.44,70.64,70.64,0,0,0-.59-14.19,44.35,44.35,0,0,0-8.87-20.35A174.16,174.16,0,0,0,124,124.42a127.46,127.46,0,0,0-16.8-14.2c-7-5-13.13-10.17-20.82-12A50.31,50.31,0,0,0,60.92,97c-9.47,2.13-15.5,5-20.94,10.89a45.68,45.68,0,0,0-12.66,20.82,50.48,50.48,0,0,0-.24,25.2A46,46,0,0,0,36,174.7a84.32,84.32,0,0,0,9.58,12c3,3.08,4.85,4.62,5.44,5.21s3,1.3-.24,1.3l-23.18.24c-.95,0-1.66-.24-1.66,1.06s.35,11.12,1.06,18a57.6,57.6,0,0,0,12.19,28.39,173.23,173.23,0,0,0,27.57,27.57c9.82,7.69,21.06,12.3,27.57,12.9a258.11,258.11,0,0,0,30.05.59,30.28,30.28,0,0,0,22-11.48c8.17-9.46,8.88-29.34,8.88-37a35.42,35.42,0,0,0-2.84-16.33A143.68,143.68,0,0,0,139.25,198.37Z" style="fill:#005bba"/><path d="M108.48,234.22a39.59,39.59,0,0,1-29.69,14.67,40.61,40.61,0,0,1-27.93-7.57c-11.12-7.69-14.67-16.57-17.74-23.9A75.46,75.46,0,0,1,29.92,199c0-.59,0-.83,1.3-.83l23.9-.24c1,0,1.42,0,1.42.83a48.39,48.39,0,0,0,1.66,10.89,16.79,16.79,0,0,0,16.33,11.71c10,.59,17.39-6.27,16.92-15.85s-5.57-12.9-9.82-15.5-12.9-3.32-19.53-5a39.74,39.74,0,0,1-22-13.61c-7.58-8.52-10.18-21.3-10.65-31.83s5.2-19.28,11.12-26.38a43.73,43.73,0,0,1,29.7-14,46.46,46.46,0,0,1,31.11,10.65c9.59,7.57,12.55,16.32,14.68,24.13a59.57,59.57,0,0,1,1.41,15.86c0,1.42-.35,1.18-1.41,1.18s-21.77-.83-23.43-.83-1.42-.23-1.42-.94-1.07-14.2-8.87-18.82a16.93,16.93,0,0,0-20.71,1.66,16.21,16.21,0,0,0-3.08,18.81c3.32,6.51,8.4,8.76,23.43,11.48a47,47,0,0,1,30.29,20.11,38.08,38.08,0,0,1,6.27,22.6C118.07,213,118.07,222.62,108.48,234.22Z" style="fill:#fff212"/><path d="M139.25,197.18c-6.75-8.16-9.59-11.12-10.18-12s-.59-.59,0-.35,10.41.35,13.49.35a43.53,43.53,0,0,0,10.41-.59,3.69,3.69,0,0,0,1.89-3.55,70.64,70.64,0,0,0-.59-14.19,45.28,45.28,0,0,0-8.87-20.24A173.48,173.48,0,0,0,124,123.24a120.73,120.73,0,0,0-16.8-14.2c-7-5-13.13-10.18-20.82-12a50.13,50.13,0,0,0-25.44-1.3c-9.47,2.13-15.5,5-20.94,10.88A44.48,44.48,0,0,0,27.2,127.5,50.48,50.48,0,0,0,27,152.7a46.13,46.13,0,0,0,8.88,20.82,84.89,84.89,0,0,0,9.58,11.95,67.6,67.6,0,0,0,5.44,5.21c.59.59,3,1.3-.23,1.3l-23.19.23c-1,0-1.66-.23-1.66,1.07s.36,11.12,1.07,18A57.58,57.58,0,0,0,39,239.66,174.07,174.07,0,0,0,66.6,267.23c9.82,7.69,21.06,12.3,27.57,12.89a253.77,253.77,0,0,0,30.05.59,30,30,0,0,0,22-11.59c8.16-9.47,8.87-29.34,8.87-37a35.42,35.42,0,0,0-2.84-16.33A139,139,0,0,0,139.25,197.18Z" style="fill:#005bba"/><path d="M108.48,233.27a39.56,39.56,0,0,1-29.69,14.67,40.56,40.56,0,0,1-27.93-7.57c-11.12-7.69-14.67-16.56-17.74-23.9A76.16,76.16,0,0,1,30,197.89c0-.59,0-.82,1.3-.82l23.9-.24c.95,0,1.42,0,1.42.83a48.3,48.3,0,0,0,1.66,10.88,17,17,0,0,0,16.32,12c10.06.59,17.4-6.27,16.92-15.85s-5.56-12.9-9.82-15.5-12.89-3.31-19.52-5a40.1,40.1,0,0,1-22-13.49c-7.57-8.52-10.17-21.3-10.64-31.83s5.2-19.28,11.12-26.26a43.73,43.73,0,0,1,29.7-14,46.48,46.48,0,0,1,31.11,10.65c9.59,7.57,12.54,16.32,14.67,24.13A57.67,57.67,0,0,1,117.36,149c0,1.54-.36,1.3-1.42,1.3s-21.77-.83-23.43-.83-1.42-.23-1.42-.94-1.06-14.2-8.87-18.82a17.28,17.28,0,0,0-20.71,1.66,16.19,16.19,0,0,0-3.07,18.81c3.31,6.51,8.4,8.76,23.42,11.48a47,47,0,0,1,30.29,20.11,38.6,38.6,0,0,1,6.27,22.72C118.07,211.86,118.07,221.44,108.48,233.27Z" style="fill:#fff212"/><path d="M199.7,136.13a19.11,19.11,0,0,0-11.12-5.2,70.4,70.4,0,0,0-7.69-.36,36.83,36.83,0,0,0-6.27.83,1.28,1.28,0,0,0-.83,1.3c0,.83-.59,88-.59,88.62s1.07,1.3,2.49,1.66a73.35,73.35,0,0,0,16.09,0,11.8,11.8,0,0,0,7.57-4.26,12.71,12.71,0,0,0,4.14-7.57c.59-3,1.3-23.9,1.3-34.67s.36-24.73,0-28.28A21.14,21.14,0,0,0,199.7,136.13Z" style="fill:#005bba"/><path d="M265.13,173.28c-.35-6.74-.59-8.75-2.48-12.77a126.18,126.18,0,0,0-12.31-20.83,111,111,0,0,0-17.15-18.57c-4.85-4.38-14.2-12.9-23.43-17-9-4.38-13.84-4-21.41-4.26-8.17-.24-38.69-.24-40.82-.24s-2.37.36-2.37,1.66c-.24,1.89-.95,76.08-1.3,93.71s-.24,53.12-.24,55.13,0,2.13.95,3.08,24.49,23.9,26.38,25.44,1.42,1.06,4,1.3,54.42.82,61.76,0a26,26,0,0,0,18.81-9.23c5.8-6.51,8.4-10.06,9.23-19.29s.59-21.41.59-34.55C265.37,204.28,265.37,179.91,265.13,173.28Z" style="fill:#005bba"/><path d="M230,187.84c-.23,10.41-.23,19.28-.35,24.25a36.14,36.14,0,0,1-4.85,15.5,37.11,37.11,0,0,1-14.91,15.86c-8.4,5-13.61,4.85-25.67,5.56s-35.74.35-36.56.35-.36-.35-.36-1.42.36-79.51.36-87.43c0-7.58.82-55.85.82-56.44s.6-.36,2.13-.36,37.86.24,44.61.83a38.4,38.4,0,0,1,22.71,11.12c6.75,6.75,12,17.16,12.19,25.68S230.23,177.54,230,187.84Z" style="fill:#fff212"/><path d="M199.7,136.13a19.11,19.11,0,0,0-11.12-5.2,70.4,70.4,0,0,0-7.69-.36,36.83,36.83,0,0,0-6.27.83,1.28,1.28,0,0,0-.83,1.3c0,.83-.59,88-.59,88.62s1.07,1.3,2.49,1.66a73.35,73.35,0,0,0,16.09,0,11.8,11.8,0,0,0,7.57-4.26,12.71,12.71,0,0,0,4.14-7.57c.59-3,1.3-23.9,1.3-34.67s.36-24.73,0-28.28A21.14,21.14,0,0,0,199.7,136.13Z" style="fill:#005bba"/></svg>