<svg width="456" height="456" id="Layer_1" data-name="Layer 1" xmlns="http://www.w3.org/2000/svg" viewBox="0 0 456.36 55.7"><defs><style>.cls-1{fill:#231f20;}.cls-2{fill:#fff;}</style></defs><path class="cls-1" d="M32.69,207.14c-2-2.4-2.83-3.32-3-3.51s-.19-.18,0-.12,3.07.12,4,.12a15,15,0,0,0,3.08-.18,1.06,1.06,0,0,0,.55-1,21.19,21.19,0,0,0-.18-4.18,13.6,13.6,0,0,0-2.58-6,54.62,54.62,0,0,0-6.28-6.88,37.34,37.34,0,0,0-4.92-4.19c-2-1.47-3.87-3-6.15-3.5a14.43,14.43,0,0,0-7.5-.37,10.7,10.7,0,0,0-6.15,3.2,13.18,13.18,0,0,0-3.75,6.15A14.88,14.88,0,0,0-.27,194a14.24,14.24,0,0,0,2.58,6.15,20.08,20.08,0,0,0,2.83,3.5,19.23,19.23,0,0,0,1.6,1.54c.24.19.86.37-.07.37l-6.82.06c-.31,0-.49-.06-.49.31s.12,3.32.3,5.29a17.37,17.37,0,0,0,3.57,8.36,50.27,50.27,0,0,0,8.12,8.12,18.1,18.1,0,0,0,8.12,3.82,74.34,74.34,0,0,0,8.85.18,8.82,8.82,0,0,0,6.46-3.38c2.4-2.77,2.65-8.61,2.65-10.89a10.5,10.5,0,0,0-.86-4.8A42,42,0,0,0,32.69,207.14Z" transform="translate(0.71 -176.44)"/><path class="cls-2" d="M23.65,217.72a11.61,11.61,0,0,1-8.73,4.3,12.2,12.2,0,0,1-8.25-2.21,14.33,14.33,0,0,1-5.22-7,23.84,23.84,0,0,1-.93-5.48c0-.18,0-.24.37-.24l7-.07c.31,0,.44,0,.44.25a13,13,0,0,0,.49,3.2,4.93,4.93,0,0,0,4.79,3.5,4.42,4.42,0,0,0,5-4.67,4.91,4.91,0,0,0-2.89-4.55c-1.17-.68-3.82-1-5.79-1.48a11.58,11.58,0,0,1-6.45-4c-2.22-2.53-3-6.28-3.14-9.35s1.54-5.66,3.26-7.75a12.78,12.78,0,0,1,8.73-4.12,13.76,13.76,0,0,1,9.17,3.13,12.11,12.11,0,0,1,4.3,7.08,17.36,17.36,0,0,1,.43,4.67c0,.43-.12.37-.43.37s-6.39-.25-6.89-.25-.43-.06-.43-.3-.3-4.19-2.58-5.54a5,5,0,0,0-6.09.49,4.87,4.87,0,0,0-.92,5.54c1,1.9,2.46,2.58,6.89,3.38a13.87,13.87,0,0,1,8.91,5.91,11.11,11.11,0,0,1,1.85,6.64A12.2,12.2,0,0,1,23.65,217.72Z" transform="translate(0.71 -176.44)"/><path class="cls-1" d="M65.83,178.37a1.51,1.51,0,0,0-1-.37l-28.91-.31c-.49.06-.8.19-.8,1.11,0,.37-.06,9.16,0,9.35a.83.83,0,0,0,.31.73c.25.31,8.61,8.06,8.79,8.25s.37.3.37.67.13,24,.06,24.42a1.12,1.12,0,0,0,.25.86c.19.31,6.89,6.77,7.2,7s.92.92,1.35.92,10.89.07,11.38.07.74-.13.67-.62.25-31.49.25-31.8.12-.49.49-.49l6.65-.06c.24,0,.36-.25.36-.55s0-11,.13-11.44a1.12,1.12,0,0,0-.31-.86C72.85,185,66.14,178.61,65.83,178.37Z" transform="translate(0.71 -176.44)"/><path class="cls-2" d="M62.94,186.79c-.18,0-2.4.06-4,.06s-4.24.07-4.67.07-.61.18-.61.49.06,34,.06,34.13,0,.31-.13.31-2.21.06-3.56.06-3.57-.06-3.69-.06-.13,0-.13-.25-.3-34.07-.3-34.31a.47.47,0,0,0-.37-.44c-.25-.06-8.86-.18-9-.18s-.25,0-.25-.18-.18-7-.12-7.32.06-.37.43-.31,7.93.06,12.42,0,13.59.06,13.72,0,.3,0,.3.25a27.39,27.39,0,0,1,.07,3.56c0,1.48.12,3.69.12,3.88S63.19,186.79,62.94,186.79Z" transform="translate(0.71 -176.44)"/><path class="cls-1" d="M93.58,187.16A5.35,5.35,0,0,0,89.7,186a3.91,3.91,0,0,0-3.5,1.79,6.33,6.33,0,0,0-1,3.56c-.06,1-.06,3.39,0,7.57a97.13,97.13,0,0,0,.31,10.15c.25,1.29.31,4.73,5,4.67s4.68-4.8,4.68-6.15-.13-15.07-.19-16.67S94.74,188.15,93.58,187.16Z" transform="translate(0.71 -176.44)"/><path class="cls-1" d="M109.81,188.64a47.34,47.34,0,0,0-5.35-5.48,54.43,54.43,0,0,0-7-4.85,15.31,15.31,0,0,0-9.22-1.79,13.22,13.22,0,0,0-9.48,5.54,12.2,12.2,0,0,0-2.39,6.39c-.07,1.85-.19,5.29-.31,10.52s-.49,11.62.12,13.84a20.54,20.54,0,0,0,3.2,7,43.39,43.39,0,0,0,8.79,8c4.06,2.7,5.85,3.32,8.18,3.56a31.94,31.94,0,0,0,9-.06,10.27,10.27,0,0,0,6.21-3.93,9,9,0,0,0,1.84-4.62c.12-1,.37-6,.43-13.53s.19-11.68-.74-14.57A16.83,16.83,0,0,0,109.81,188.64Z" transform="translate(0.71 -176.44)"/><path class="cls-2" d="M103,210.47c-.25,2.77-2,5.78-4.37,8.18s-4.18,2.89-8.43,3.14-6.7-1.17-9.41-3.69a10.18,10.18,0,0,1-3.56-6.89c-.13-1.78-.06-6,.06-12s.06-7.81.12-9.6a13.16,13.16,0,0,1,3-7.19c3-3.69,5.66-4.43,9-4.55a12.88,12.88,0,0,1,9.41,3.25,12.25,12.25,0,0,1,4.19,8.74c.18,2.46.18,5.23.24,10.15S103.17,207.7,103,210.47Z" transform="translate(0.71 -176.44)"/><path class="cls-1" d="M151.83,189.81c-1.05-1.23-5.05-5.91-8.68-8.49s-6.15-3.94-8.91-4.31a37.77,37.77,0,0,0-7.26-.12c-1,.31-4.37,1.42-6.09,3.57a12.66,12.66,0,0,0-3.69,8.86c-.19,4.73-.25,19.37.06,21.64a18.84,18.84,0,0,0,4.12,9.35c3.38,3.94,7.87,8.06,11.38,9.66a17.75,17.75,0,0,0,7.13,2c1.85.12,6.22.37,8.55-.37a7,7,0,0,0,5.11-5,35.25,35.25,0,0,0,1-9.17,27.46,27.46,0,0,0-.24-4.3,2.35,2.35,0,0,0-.62-1.29,20.84,20.84,0,0,0-2.21-2.71c-.86-1.29-1.85-2.4-2.15-2.83s-.19-.37,0-.37c.49-.06,4.3-.06,4.73-.06s.62.25.62-.25.12-4.79.12-6.33a18.9,18.9,0,0,0-.68-5.1A16.45,16.45,0,0,0,151.83,189.81Z" transform="translate(0.71 -176.44)"/><path class="cls-2" d="M142.72,215.21c-2.33,3.75-5,6.27-9.41,6.64s-8.55-.86-11.13-3.2a10.5,10.5,0,0,1-4.06-7.81c-.37-3.2-.31-10.45-.31-15.56s.07-6.4.56-8.43a13.38,13.38,0,0,1,3.56-5.84,9.71,9.71,0,0,1,6.22-3.07,18.8,18.8,0,0,1,6.45.37c2.28.67,6,2.15,7.75,5.16s2,4.31,2.1,6.09c.12,2,.12,5,.12,5.41s.06.37-.19.43l-8.11.13c-.25,0-.25-.25-.31-.37-.06-.43.18-4.12-.31-5.78a3.7,3.7,0,0,0-1.91-2.71,5.48,5.48,0,0,0-4.61,0,5.56,5.56,0,0,0-2.34,4.61c-.12,2.59-.3,12.37-.37,15.56s.5,5.11,2.16,6.28a5.08,5.08,0,0,0,5.29-.19,5.42,5.42,0,0,0,2-4c.12-1.9.18-4.05.18-4.48s.06-.44.37-.37l7.93.06c.37,0,.31.06.31.31S145.18,211.33,142.72,215.21Z" transform="translate(0.71 -176.44)"/><path class="cls-1" d="M200.91,227.63c-.25-.43-6.09-11.75-7.81-15.13s-5.29-10.76-5.47-11-.19-.3,0-.49,5.16-5.29,6.76-6.95c1.72-1.84,5.72-5.84,6-6.27a.9.9,0,0,0,.37-.8v-1.11a.78.78,0,0,0-.25-.68c-.24-.18-7.32-6.7-7.75-7.13s-.61-.49-1-.43-13.72.12-14.21.12-.49.19-.8.49-3.63,3.76-3.93,4-.31.31-.44,0-.86-1.29-1.59-2.27a13.76,13.76,0,0,0-1.67-2,.58.58,0,0,0-.67-.25h-8.67a2.42,2.42,0,0,0-1.05.25c-.25.12-.43.8-.43.8,0,.24-.18,1.54-.25,2-.06,2.58-.18,10.88-.18,14.7,0,2.76.25,25.95.25,26.2a1.66,1.66,0,0,0,.3.92c.25.31,9.41,8.36,9.6,8.61s.43.31.67.31,10.71-.19,11.07-.25a.8.8,0,0,0,.74-1v-7c-.06-.25,0-.25.37,0s2.46,1.78,5.05,3.93,4.3,3.51,4.61,3.75a1.58,1.58,0,0,0,1,.31c.5.06,8.24,0,8.86-.06s.62-.25.62-.62a12.67,12.67,0,0,0,.06-2.15A1.82,1.82,0,0,0,200.91,227.63Z" transform="translate(0.71 -176.44)"/><path class="cls-2" d="M190.27,221.6l-8.12.07c-.24,0-.24,0-.37-.25s-5.9-12.06-7.32-15-4.12-8.48-4.3-8.91-.25-.25-.43-.13-1.91,2.09-2,2.22-.12.24-.12.49,0,21.4.06,21.65-.13.24-.31.24h-7.69c-.18.06-.24-.06-.24-.24s-.25-23.44-.25-26.94.06-15.5.06-15.75,0-.18.19-.24,2.27,0,4.24-.06,3.81.06,4,.06.37.06.3.31,0,2.52-.12,5-.06,3.75-.06,3.75v.49c0,.49.12.37.37.25s4.61-4.31,6.27-5.78,3.2-3.26,3.51-3.63a1,1,0,0,1,.8-.31h9.65c.56-.06.25.12.13.25s-4.31,4.36-6,6-6.15,5.85-6.46,6.21-.24.37-.12.62,7.13,14.33,8.73,17.53c1.85,3.2,5.66,11.25,5.85,11.62S190.58,221.6,190.27,221.6Z" transform="translate(0.71 -176.44)"/><path class="cls-1" d="M219.86,188.58a5.71,5.71,0,0,0-3.32-1.54c-.74-.06-1.29-.12-2.28-.12a10,10,0,0,0-1.84.24.35.35,0,0,0-.25.37c0,.25-.18,25.89-.18,26.08s.3.37.73.49a20.19,20.19,0,0,0,4.74,0,3.57,3.57,0,0,0,2.21-1.23,4,4,0,0,0,1.23-2.21c.19-.86.37-7,.37-10.21s.13-7.26,0-8.31A5.74,5.74,0,0,0,219.86,188.58Z" transform="translate(0.71 -176.44)"/><path class="cls-1" d="M239.11,199.52a8.43,8.43,0,0,0-.74-3.75,34.56,34.56,0,0,0-8.67-11.62,28,28,0,0,0-6.89-5c-2.64-1.29-4.06-1.17-6.33-1.23s-11.38-.06-12-.06-.67.12-.67.49c-.06.55-.31,22.38-.37,27.55s-.06,15.62-.06,16.24,0,.61.3.92,7.2,7,7.75,7.5.43.31,1.17.37,16,.25,18.15,0a7.59,7.59,0,0,0,5.53-2.7c1.72-1.91,2.46-2.95,2.71-5.66s.18-6.34.18-10.15S239.17,201.43,239.11,199.52Z" transform="translate(0.71 -176.44)"/><path class="cls-2" d="M228.78,203.77c-.06,3.07-.06,5.66-.13,7.13a10.73,10.73,0,0,1-1.41,4.55,11,11,0,0,1-4.37,4.68c-2.46,1.47-4,1.41-7.56,1.6s-10.52.18-10.76.12-.13-.12-.13-.43.13-23.37.13-25.71.24-16.42.24-16.6.19-.13.62-.13,11.13.06,13.1.25a11.7,11.7,0,0,1,6.7,3.32,12.23,12.23,0,0,1,3.57,7.56C228.84,192.64,228.84,200.75,228.78,203.77Z" transform="translate(0.71 -176.44)"/><path class="cls-1" d="M279.52,212a12.33,12.33,0,0,0-2.09-2.77c-.18-.24-.18-.37.06-.67A12.36,12.36,0,0,0,280,204a13.81,13.81,0,0,0-.61-7.5,16.71,16.71,0,0,0-3.75-6.15,62.79,62.79,0,0,0-8.37-8.43,18.55,18.55,0,0,0-9.41-3.63c-3.63-.36-13.16-.49-14.14-.43s-1.36.13-1.36.8c-.06.5,0,42.32,0,42.87a1.55,1.55,0,0,0,.5,1.29c.24.25,8.18,7.81,8.36,8a.72.72,0,0,0,.61.24l8.74.07c.49-.07.86-.19.86-.56-.19-.37.06-5.41.06-6s.25-.68.8-.19a94.86,94.86,0,0,0,8.3,6.21,5.26,5.26,0,0,0,2.59.5c.73,0,3.38.18,4.42-.25a5.31,5.31,0,0,0,2.4-1.91,1.72,1.72,0,0,0,.31-.92c0-.31-.06-6.09-.12-8.86S280.38,213.79,279.52,212Z" transform="translate(0.71 -176.44)"/><path class="cls-2" d="M272.26,216.81a6.9,6.9,0,0,1-1.53,3.13c-1.42,1.73-2.65,1.73-4.19,1.79s-2.64-.37-4.05-2.15S261,213,261,210.16s-.86-3.81-2.4-5-6.4-.67-6.64-.61-.5.06-.5.55-.06,15.87-.06,16.24-.12.43-.43.49h-7c-.37,0-.37-.31-.37-.61s-.12-13,0-20.55c.06-7.68-.12-21.34-.06-21.71.06-.18,0-.24.31-.37s7.32.13,9.29.25a19.61,19.61,0,0,1,8.48,1.78c3.32,1.66,5.05,4.62,6.22,6.71a11.79,11.79,0,0,1,.61,8.48,10.13,10.13,0,0,1-2.58,4.8c-.13.19-.25.31,0,.62a20.18,20.18,0,0,1,2.09,3.26c.8,1.66.86,4.36.92,6.27s.06,2.4.74,3.57a4.75,4.75,0,0,0,2.52,1.84C272.39,216.31,272.39,216.31,272.26,216.81Z" transform="translate(0.71 -176.44)"/><path class="cls-1" d="M258.06,187.47a7.62,7.62,0,0,0-3.2-.55,27.87,27.87,0,0,0-3.2.12c-.25.06-.43.12-.43.43s.12,7.93.12,8.3.06.86.74.86,4.25.31,5.72-.24,3.08-1.17,3.26-4.25A4.9,4.9,0,0,0,258.06,187.47Z" transform="translate(0.71 -176.44)"/><path class="cls-1" d="M316.06,188.64a47.34,47.34,0,0,0-5.35-5.48,55.13,55.13,0,0,0-7-4.85,15.35,15.35,0,0,0-9.23-1.79,13.22,13.22,0,0,0-9.47,5.54,12.13,12.13,0,0,0-2.4,6.39c-.06,1.85-.18,5.29-.3,10.52s-.5,11.62.12,13.84a20.35,20.35,0,0,0,3.2,7,43.39,43.39,0,0,0,8.79,8c4.06,2.7,5.84,3.32,8.18,3.56a31.86,31.86,0,0,0,9-.06,10.24,10.24,0,0,0,6.21-3.93,9,9,0,0,0,1.85-4.62c.12-1,.37-6,.43-13.53s.18-11.68-.74-14.57A16.83,16.83,0,0,0,316.06,188.64Z" transform="translate(0.71 -176.44)"/><path class="cls-2" d="M309.23,210.47c-.24,2.77-2,5.78-4.36,8.18s-4.19,2.89-8.43,3.14-6.7-1.17-9.41-3.69a10.2,10.2,0,0,1-3.57-6.89c-.12-1.78-.06-6,.06-12s.07-7.81.13-9.6a13.09,13.09,0,0,1,3-7.19c2.95-3.69,5.66-4.43,9-4.55a12.89,12.89,0,0,1,9.41,3.25,12.19,12.19,0,0,1,4.18,8.74c.19,2.46.19,5.23.25,10.15S309.42,207.7,309.23,210.47Z" transform="translate(0.71 -176.44)"/><path class="cls-1" d="M299.82,187.16A5.32,5.32,0,0,0,296,186a3.93,3.93,0,0,0-3.51,1.79,6.39,6.39,0,0,0-1,3.56c-.06,1-.06,3.39,0,7.57a97.13,97.13,0,0,0,.31,10.15c.24,1.29.3,4.73,5,4.67s4.67-4.8,4.67-6.15-.12-15.07-.18-16.67S301,188.15,299.82,187.16Z" transform="translate(0.71 -176.44)"/><path class="cls-1" d="M337.78,187.22a20.87,20.87,0,0,0-4.68-.24c-.67.12-.86.06-.86.49,0,.68.06,7.44,0,7.93s.19.8.8.8a19.25,19.25,0,0,0,5-.3c1.6-.62,3.33-1.23,3.39-4.31A4.43,4.43,0,0,0,337.78,187.22Z" transform="translate(0.71 -176.44)"/><path class="cls-1" d="M344.79,180.27c-2.65-1.59-4-2.33-7.26-2.46s-12.67-.12-13.16,0-1.05.13-1.05.8,0,18.09,0,25.34,0,16.92,0,17.59a1.48,1.48,0,0,0,.31,1.11c.25.31,2.46,2.77,4,4.31s3.07,2.82,3.44,3.19a1.72,1.72,0,0,0,1.42.62c.61.06,10.21.24,10.7.18s.67.06.8-.86.12-13.65.12-14.08-.06-.74.49-.74a21,21,0,0,0,8.49-2.4c3.32-1.84,7.44-3.94,7.26-11.25s-3.26-9.66-4.43-11.14S347.43,181.81,344.79,180.27Z" transform="translate(0.71 -176.44)"/><path class="cls-2" d="M346,200.63a8.94,8.94,0,0,1-5.91,3.2c-2.52.31-6.7.31-7.13.31s-.62-.06-.55.37-.19,5.16-.19,8.79v8c0,.55-.06.61-.67.61s-6.09-.12-6.71-.12-.43-.25-.43-.68-.06-14.51-.12-21,.06-20.54.12-20.91.06-.25.55-.25,9.54,0,13.29.13a11.29,11.29,0,0,1,7.87,4.18,12.4,12.4,0,0,1,3.51,8.36A13.13,13.13,0,0,1,346,200.63Z" transform="translate(0.71 -176.44)"/><path class="cls-1" d="M395.1,206.91c-2-2.4-2.83-3.33-3-3.51s-.19-.18,0-.12,3.07.12,4,.12a15,15,0,0,0,3.07-.18,1.07,1.07,0,0,0,.55-1.05,21.17,21.17,0,0,0-.18-4.18,13.43,13.43,0,0,0-2.58-6,54.63,54.63,0,0,0-6.28-6.89,37.22,37.22,0,0,0-4.92-4.18c-2-1.48-3.87-3-6.15-3.51a14.54,14.54,0,0,0-7.5-.36,10.75,10.75,0,0,0-6.15,3.19,13.31,13.31,0,0,0-3.75,6.15,14.92,14.92,0,0,0-.06,7.39,14.2,14.2,0,0,0,2.58,6.14,20.74,20.74,0,0,0,2.83,3.51c.86.92,1.41,1.35,1.6,1.54s.86.37-.06.37l-6.83.06c-.31,0-.49-.06-.49.31s.12,3.32.3,5.29a17.41,17.41,0,0,0,3.57,8.36,50.27,50.27,0,0,0,8.12,8.12,18.06,18.06,0,0,0,8.12,3.81,72.38,72.38,0,0,0,8.85.19,8.84,8.84,0,0,0,6.46-3.39c2.4-2.76,2.65-8.61,2.65-10.88a10.47,10.47,0,0,0-.86-4.8A41.29,41.29,0,0,0,395.1,206.91Z" transform="translate(0.71 -176.44)"/><path class="cls-2" d="M386.06,217.48a11.6,11.6,0,0,1-8.73,4.31,12.17,12.17,0,0,1-8.24-2.21,14.27,14.27,0,0,1-5.23-7,23.47,23.47,0,0,1-.92-5.47c0-.18,0-.25.36-.25l7-.06c.3,0,.43,0,.43.25a13,13,0,0,0,.49,3.2,5,5,0,0,0,4.8,3.5,4.42,4.42,0,0,0,5-4.67,4.88,4.88,0,0,0-2.89-4.55c-1.17-.68-3.82-1-5.79-1.48a11.54,11.54,0,0,1-6.45-4c-2.22-2.52-3-6.27-3.14-9.35s1.54-5.65,3.26-7.75a12.82,12.82,0,0,1,8.73-4.12,13.77,13.77,0,0,1,9.17,3.14,12.09,12.09,0,0,1,4.3,7.07,17.45,17.45,0,0,1,.43,4.68c0,.43-.12.37-.43.37s-6.39-.25-6.89-.25-.43-.06-.43-.31-.3-4.18-2.58-5.53a5,5,0,0,0-6.09.49,4.89,4.89,0,0,0-.92,5.54c1,1.9,2.46,2.58,6.89,3.38a14,14,0,0,1,8.92,5.9,11.21,11.21,0,0,1,1.84,6.64A12.17,12.17,0,0,1,386.06,217.48Z" transform="translate(0.71 -176.44)"/><path class="cls-1" d="M405.48,218.2a.64.64,0,0,0-.5-.21c-.29,0-3.52,0-3.73,0s-.19.14-.19.26-.12,3.16-.12,3.4a.76.76,0,0,0,.21.55c.1.17,1.2,1.18,2.13,2.11s1.32,1.22,1.41,1.29a.44.44,0,0,0,.34.07c.09,0,1.43.08,1.94.05s1-.05,1.15-.07.16-.14.19-.31,0-3.64,0-3.83,0-.19-.16-.38S405.6,218.35,405.48,218.2Z" transform="translate(0.71 -176.44)"/><path class="cls-2" d="M404.29,221.7c0,.19,0,.24-.17.24l-2.42-.12c-.17,0-.14-.12-.14-.27v-3c0-.09,0,0,.19,0l2.44,0c.12,0,.14.05.14.24S404.29,221.53,404.29,221.7Z" transform="translate(0.71 -176.44)"/><path class="cls-1" d="M423.93,207.22c-.21-.2-.48-.58-1.15-1.18a15.45,15.45,0,0,0-1.34-1,.92.92,0,0,0-.62-.21l-3.9,0c-.19,0-.22,0-.22.23s0,1.42,0,1.61.07.31-.22,0-2.6-1.56-2.82-1.7a.89.89,0,0,0-.62-.19c-.29,0-3.28,0-3.5,0s-.24.05-.26.24-.05,7.28-.07,8.88,0,8.11,0,8.33a.49.49,0,0,0,.22.5l2.92,2.68a.5.5,0,0,0,.38.12c.14,0,3.81.05,4,0s.36,0,.36-.29V223.8c0-.19,0-.26.21-.07s2.3,1.51,2.49,1.65a1.09,1.09,0,0,0,.6.19c.29,0,3.5,0,3.64,0s.22-.16.24-.57-.1-16.61-.12-17S424.17,207.43,423.93,207.22Z" transform="translate(0.71 -176.44)"/><path class="cls-2" d="M420.17,221.89l-2.8.09c-.14,0-.14,0-.24-.21s-4.14-9.6-4.23-9.74-.17-.43-.17-.05.07,9.26.07,9.57,0,.27-.19.27-2.73.09-2.85.09-.09,0-.09-.19-.05-5.1,0-7.18.05-9,0-9.14-.05-.15.12-.17,3-.1,3.08-.1.12,0,.17.15,1.27,2.85,1.8,4,1.84,4.43,2.1,5,.24.28.24,0v-8.8c0-.22.05-.22.12-.22l2.75-.1a.17.17,0,0,1,.19.15c0,.12.08,16.25.08,16.42S420.29,221.89,420.17,221.89Z" transform="translate(0.71 -176.44)"/><path class="cls-1" d="M439.89,207.93c0-.16,0-.19-.1-.33s-3-2.63-3.09-2.71a.47.47,0,0,0-.31-.09c-.16,0-10.17-.05-10.36,0s-.29.07-.26.24-.17,16.75-.17,17,.14.26.19.33,3.23,3,3.33,3.09a.31.31,0,0,0,.24.1l10.29-.1c.16,0,.21,0,.21-.24s0-3.45,0-3.54a.39.39,0,0,0-.1-.26c-.09-.12-3.18-3.16-3.25-3.24s0-.12,0-.14.05-.1.05-.19-.07-2.71-.07-2.83a.26.26,0,0,0-.07-.21c-.05-.07-2-2.73-2.09-2.85s-.07-.09.1-.09,5.12.07,5.31.07.15,0,.17-.22S439.86,208.08,439.89,207.93Z" transform="translate(0.71 -176.44)"/><path class="cls-2" d="M435.77,208.13c0,.12,0,.16-.22.21s-6.05.07-6.17.07-.14.05-.14.1,0,3.09,0,3.18,0,.15.12.15l3.47,0c.07,0,.07,0,0,.1s0,2.8,0,2.89,0,.12-.12.12-3.13,0-3.3,0-.19.09-.17.19,0,3.11,0,3.26,0,.16.14.19,6.15,0,6.3,0,.14,0,.14.15,0,2.77,0,2.89.05.17-.09.17-9.55.07-9.67.1-.12,0-.12-.12.21-16.26.21-16.45.05-.19.19-.19,9.17,0,9.29.07.12.08.12.15S435.79,208,435.77,208.13Z" transform="translate(0.71 -176.44)"/><path class="cls-1" d="M455.53,207.65c-.07-.1-2.68-2.59-2.8-2.68a.57.57,0,0,0-.4-.15l-11.25-.12c-.2,0-.31.08-.31.43,0,.15,0,3.57,0,3.64a.36.36,0,0,0,.11.29c.1.12,3.35,3.13,3.43,3.21s.14.12.14.26.05,9.36,0,9.5a.46.46,0,0,0,.1.34c.07.12,2.68,2.63,2.8,2.72s.36.36.53.36,4.23,0,4.43,0,.28,0,.26-.24.09-12.26.09-12.38.05-.19.19-.19l2.59,0c.1,0,.14-.1.14-.22s0-4.28,0-4.45A.42.42,0,0,0,455.53,207.65Z" transform="translate(0.71 -176.44)"/><path class="cls-2" d="M451.61,208.25l-1.56,0-1.82,0c-.14,0-.24.08-.24.19s0,13.22,0,13.29,0,.12,0,.12l-1.39,0-1.44,0s0,0,0-.1-.12-13.26-.12-13.35a.18.18,0,0,0-.15-.17c-.09,0-3.44-.07-3.52-.07s-.09,0-.09-.07-.07-2.73-.05-2.85,0-.15.17-.12,3.09,0,4.83,0,5.29,0,5.34,0,.12,0,.12.09a10.63,10.63,0,0,1,0,1.39c0,.58.05,1.44.05,1.51S451.7,208.25,451.61,208.25Z" transform="translate(0.71 -176.44)"/><path class="cls-1" d="M93.52,187.15A5.32,5.32,0,0,0,89.65,186a3.93,3.93,0,0,0-3.51,1.79,6.39,6.39,0,0,0-1,3.56c-.06,1-.06,3.39,0,7.57a97.13,97.13,0,0,0,.31,10.15c.24,1.29.3,4.73,5,4.67s4.67-4.8,4.67-6.15S95,192.5,94.94,190.9,94.69,188.14,93.52,187.15Z" transform="translate(0.71 -176.44)"/><path class="cls-1" d="M219.86,188.58a5.71,5.71,0,0,0-3.32-1.54c-.74-.06-1.29-.12-2.28-.12a10,10,0,0,0-1.84.24.35.35,0,0,0-.25.37c0,.25-.18,25.89-.18,26.08s.3.37.73.49a20.19,20.19,0,0,0,4.74,0,3.57,3.57,0,0,0,2.21-1.23,4,4,0,0,0,1.23-2.21c.19-.86.37-7,.37-10.21s.13-7.26,0-8.31A5.74,5.74,0,0,0,219.86,188.58Z" transform="translate(0.71 -176.44)"/><path class="cls-1" d="M258.06,187.47a7.62,7.62,0,0,0-3.2-.55,27.87,27.87,0,0,0-3.2.12c-.25.06-.43.12-.43.43s.12,7.93.12,8.3.06.86.74.86,4.25.31,5.72-.24,3.08-1.17,3.26-4.25A4.9,4.9,0,0,0,258.06,187.47Z" transform="translate(0.71 -176.44)"/><path class="cls-1" d="M299.82,187.17A5.28,5.28,0,0,0,296,186a3.93,3.93,0,0,0-3.51,1.78,6.42,6.42,0,0,0-1,3.57c-.06,1-.06,3.38,0,7.56a97,97,0,0,0,.31,10.15c.24,1.29.3,4.74,5,4.68s4.67-4.8,4.67-6.15-.12-15.07-.18-16.67S301,188.15,299.82,187.17Z" transform="translate(0.71 -176.44)"/><path class="cls-1" d="M337.89,187.22a20.78,20.78,0,0,0-4.67-.24c-.68.12-.86.06-.86.49,0,.68.06,7.44,0,7.93s.18.8.8.8a19.27,19.27,0,0,0,5-.3c1.6-.62,3.32-1.23,3.38-4.31A4.42,4.42,0,0,0,337.89,187.22Z" transform="translate(0.71 -176.44)"/></svg>