<svg xmlns="http://www.w3.org/2000/svg" viewBox="0 0 383.39 46.79"><defs><style>.a{fill:#231f20;}.b{fill:#fff;}</style></defs><path class="a" d="M38,55.85c-1.65-2-2.37-2.79-2.53-2.94s-.16-.16,0-.1,2.59.1,3.36.1a11.91,11.91,0,0,0,2.58-.16.89.89,0,0,0,.47-.87,18.09,18.09,0,0,0-.16-3.52,11.23,11.23,0,0,0-2.17-5,45.29,45.29,0,0,0-5.27-5.79,30.73,30.73,0,0,0-4.13-3.51c-1.7-1.25-3.25-2.53-5.17-3a12.36,12.36,0,0,0-6.3-.31,9.17,9.17,0,0,0-5.17,2.69,11,11,0,0,0-3.15,5.16,12.63,12.63,0,0,0-.05,6.2A12,12,0,0,0,12.52,50a18,18,0,0,0,2.37,3c.73.78,1.19,1.13,1.35,1.29s.72.31,0,.31l-5.74,0c-.26,0-.41,0-.41.25s.1,2.79.25,4.45a14.45,14.45,0,0,0,3,7,42,42,0,0,0,6.82,6.83,15.3,15.3,0,0,0,6.82,3.21,63.2,63.2,0,0,0,7.45.15,7.39,7.39,0,0,0,5.42-2.84c2-2.33,2.22-7.23,2.22-9.15a8.69,8.69,0,0,0-.72-4A35.62,35.62,0,0,0,38,55.85Z" transform="translate(-9.99 -30.06)"/><path class="b" d="M30.45,64.75a9.76,9.76,0,0,1-7.34,3.62,10.22,10.22,0,0,1-6.92-1.86,11.87,11.87,0,0,1-4.39-5.89A20,20,0,0,1,11,56c0-.15,0-.21.31-.21l5.89-.05c.25,0,.36,0,.36.21A11,11,0,0,0,18,58.64a4.15,4.15,0,0,0,4,3,3.72,3.72,0,0,0,4.19-3.93,4.11,4.11,0,0,0-2.43-3.82c-1-.57-3.2-.83-4.86-1.25a9.73,9.73,0,0,1-5.43-3.34C11.64,47.13,11,44,10.86,41.4a10,10,0,0,1,2.75-6.5A10.74,10.74,0,0,1,21,31.44a11.54,11.54,0,0,1,7.7,2.63A10.2,10.2,0,0,1,32.27,40a15.27,15.27,0,0,1,.36,3.93c0,.36-.1.31-.36.31S26.89,44,26.48,44s-.36,0-.36-.25-.25-3.51-2.17-4.65a4.27,4.27,0,0,0-5.12.41,4.09,4.09,0,0,0-.77,4.65c.83,1.6,2.07,2.17,5.79,2.85a11.77,11.77,0,0,1,7.5,5,9.39,9.39,0,0,1,1.55,5.57A10.37,10.37,0,0,1,30.45,64.75Z" transform="translate(-9.99 -30.06)"/><path class="a" d="M65.89,31.68a1.3,1.3,0,0,0-.88-.31l-24.29-.25c-.41.06-.67.16-.67.93,0,.31,0,7.7,0,7.86a.74.74,0,0,0,.25.62c.21.25,7.24,6.77,7.39,6.92s.31.25.31.57.11,20.2,0,20.5a.94.94,0,0,0,.21.72c.16.25,5.79,5.68,6.05,5.89s.77.78,1.13.78,9.15,0,9.56,0,.62-.1.57-.52.21-26.45.21-26.71.1-.41.41-.41l5.58-.06c.2,0,.31-.2.31-.46s0-9.25.1-9.61a.9.9,0,0,0-.25-.72C71.78,37.26,66.14,31.89,65.89,31.68Z" transform="translate(-9.99 -30.06)"/><path class="b" d="M63.46,38.76c-.16,0-2,.05-3.36.05s-3.57.06-3.93.06-.52.15-.52.41.06,28.52.06,28.67,0,.25-.11.25-1.86,0-3,0-3,0-3.09,0-.11,0-.11-.2-.25-28.63-.25-28.83a.38.38,0,0,0-.31-.37c-.21,0-7.44-.15-7.59-.15s-.21,0-.21-.16-.16-5.89-.1-6.14.05-.31.36-.25,6.66,0,10.43,0,11.42,0,11.53,0,.25,0,.25.2a23.11,23.11,0,0,1,.05,3c0,1.25.1,3.1.1,3.25S63.67,38.76,63.46,38.76Z" transform="translate(-9.99 -30.06)"/><path class="a" d="M89.19,39.07a4.44,4.44,0,0,0-3.25-1A3.26,3.26,0,0,0,83,39.59a5.32,5.32,0,0,0-.83,3c0,.83,0,2.84,0,6.35s0,7.44.25,8.53.25,4,4.18,3.93,3.93-4,3.93-5.17-.1-12.66-.15-14S90.17,39.9,89.19,39.07Z" transform="translate(-9.99 -30.06)"/><path class="a" d="M102.83,40.31a39.11,39.11,0,0,0-4.5-4.6,46.09,46.09,0,0,0-5.89-4.08,12.91,12.91,0,0,0-7.75-1.5,11.06,11.06,0,0,0-8,4.65,10.12,10.12,0,0,0-2,5.38c0,1.55-.15,4.44-.25,8.83s-.41,9.77.1,11.63a17.07,17.07,0,0,0,2.68,5.88,36.31,36.31,0,0,0,7.39,6.72c3.41,2.27,4.9,2.78,6.87,3a27.2,27.2,0,0,0,7.59,0,8.65,8.65,0,0,0,5.22-3.31A7.51,7.51,0,0,0,105.87,69c.11-.87.31-5.06.37-11.36s.15-9.82-.63-12.25A14.1,14.1,0,0,0,102.83,40.31Z" transform="translate(-9.99 -30.06)"/><path class="b" d="M97.1,58.65a11.92,11.92,0,0,1-3.67,6.88c-2,1.91-3.51,2.42-7.08,2.63s-5.63-1-7.91-3.1a8.59,8.59,0,0,1-3-5.79c-.1-1.5,0-5.06.06-10.07s0-6.56.1-8.06a11.11,11.11,0,0,1,2.53-6,8.92,8.92,0,0,1,7.55-3.82A10.83,10.83,0,0,1,93.58,34a10.26,10.26,0,0,1,3.52,7.34c.15,2.07.15,4.39.2,8.52S97.25,56.33,97.1,58.65Z" transform="translate(-9.99 -30.06)"/><path class="a" d="M138.12,41.29a47.36,47.36,0,0,0-7.28-7.13c-3-2.06-5.17-3.3-7.5-3.62a31.18,31.18,0,0,0-6.1-.1c-.88.25-3.67,1.19-5.11,3a10.59,10.59,0,0,0-3.1,7.44c-.16,4-.21,16.28,0,18.19a15.68,15.68,0,0,0,3.46,7.85c2.84,3.31,6.61,6.77,9.56,8.11a14.84,14.84,0,0,0,6,1.71c1.56.11,5.22.31,7.18-.31a5.85,5.85,0,0,0,4.29-4.18,29.36,29.36,0,0,0,.88-7.7,21.65,21.65,0,0,0-.21-3.62,2,2,0,0,0-.51-1.08,18.51,18.51,0,0,0-1.86-2.28c-.73-1.08-1.55-2-1.81-2.37s-.16-.31,0-.31c.41-.06,3.61-.06,4-.06s.51.21.51-.21.1-4,.1-5.31a16.1,16.1,0,0,0-.56-4.3A13.7,13.7,0,0,0,138.12,41.29Z" transform="translate(-9.99 -30.06)"/><path class="b" d="M130.48,62.63c-2,3.15-4.19,5.27-7.91,5.58s-7.18-.72-9.35-2.68A8.83,8.83,0,0,1,109.81,59c-.31-2.69-.25-8.79-.25-13.08s0-5.37.47-7.08a11.17,11.17,0,0,1,3-4.91,8.18,8.18,0,0,1,5.22-2.58,16.06,16.06,0,0,1,5.42.31c1.91.57,5.07,1.81,6.5,4.34s1.66,3.62,1.75,5.12.11,4.23.11,4.54.05.31-.16.36l-6.82.11c-.2,0-.2-.21-.25-.31a25.17,25.17,0,0,0-.25-4.86,3.1,3.1,0,0,0-1.6-2.27,4.58,4.58,0,0,0-3.87,0,4.63,4.63,0,0,0-2,3.87c-.1,2.17-.25,10.39-.31,13.07s.42,4.29,1.81,5.27a4.29,4.29,0,0,0,4.45-.15,4.55,4.55,0,0,0,1.7-3.36c.1-1.6.16-3.41.16-3.77s0-.36.31-.31l6.66,0c.31,0,.25.05.25.25S132.54,59.38,130.48,62.63Z" transform="translate(-9.99 -30.06)"/><path class="a" d="M179.36,73.07c-.21-.36-5.12-9.87-6.56-12.71s-4.45-9-4.6-9.25-.16-.25,0-.42,4.34-4.44,5.68-5.84,4.81-4.9,5.07-5.27a.74.74,0,0,0,.31-.66V38a.66.66,0,0,0-.21-.57c-.21-.15-6.15-5.63-6.51-6s-.52-.41-.83-.36-11.52.1-11.93.1-.41.16-.67.42-3.05,3.15-3.31,3.35-.25.25-.36,0-.73-1.08-1.34-1.91a13,13,0,0,0-1.4-1.65.51.51,0,0,0-.57-.21h-7.28a1.9,1.9,0,0,0-.88.21c-.21.1-.36.67-.36.67,0,.21-.16,1.29-.21,1.71-.05,2.17-.16,9.14-.16,12.34,0,2.33.21,21.81.21,22a1.44,1.44,0,0,0,.25.77c.21.25,7.91,7,8.06,7.23s.36.25.57.25,9-.15,9.3-.2a.68.68,0,0,0,.62-.83V69.45c-.05-.2,0-.2.31,0s2.07,1.5,4.24,3.31,3.61,2.95,3.88,3.15a1.35,1.35,0,0,0,.87.25c.42,0,6.93,0,7.44,0s.52-.21.52-.52a9.93,9.93,0,0,0,.05-1.81A1.61,1.61,0,0,0,179.36,73.07Z" transform="translate(-9.99 -30.06)"/><path class="b" d="M170.42,68l-6.82,0c-.21,0-.21,0-.31-.2s-5-10.13-6.15-12.61-3.46-7.13-3.61-7.5-.21-.21-.37-.11-1.6,1.75-1.7,1.86-.1.21-.1.42,0,18,0,18.19-.1.2-.25.2h-6.47c-.15,0-.2,0-.2-.2s-.21-19.69-.21-22.64.05-13,.05-13.22,0-.16.16-.21,1.91,0,3.56-.05,3.2.05,3.36.05.31,0,.25.25,0,2.12-.1,4.24-.05,3.15-.05,3.15v.41c0,.41.1.31.31.21s3.87-3.62,5.27-4.86a40.35,40.35,0,0,0,2.94-3,.83.83,0,0,1,.67-.25h8.12c.46-.05.2.11.1.21s-3.62,3.67-5,5-5.17,4.91-5.43,5.22-.21.31-.1.52,6,12,7.34,14.72c1.54,2.69,4.75,9.46,4.9,9.77S170.68,68,170.42,68Z" transform="translate(-9.99 -30.06)"/><path class="a" d="M195.28,40.25A4.78,4.78,0,0,0,192.5,39c-.62,0-1.09-.11-1.91-.11a8.14,8.14,0,0,0-1.55.21.29.29,0,0,0-.21.31c0,.21-.15,21.75-.15,21.91s.25.31.62.41a16.38,16.38,0,0,0,4,0,3,3,0,0,0,1.86-1,3.41,3.41,0,0,0,1-1.86c.15-.73.31-5.89.31-8.58s.1-6.1,0-7A5,5,0,0,0,195.28,40.25Z" transform="translate(-9.99 -30.06)"/><path class="a" d="M211.45,49.46a6.91,6.91,0,0,0-.62-3.15,28.8,28.8,0,0,0-7.28-9.77,23.8,23.8,0,0,0-5.79-4.19,10.41,10.41,0,0,0-5.32-1c-2-.05-9.56-.05-10.08-.05s-.57.1-.57.41c0,.47-.25,18.81-.3,23.15s-.06,13.12-.06,13.64,0,.52.25.78,6,5.89,6.5,6.3.36.25,1,.31,13.44.21,15.25,0a6.4,6.4,0,0,0,4.65-2.28,6.79,6.79,0,0,0,2.27-4.75c.25-2.27.16-5.32.16-8.52S211.5,51.06,211.45,49.46Z" transform="translate(-9.99 -30.06)"/><path class="b" d="M202.77,53c-.05,2.58-.05,4.75-.1,6a9,9,0,0,1-1.19,3.82,9.2,9.2,0,0,1-3.67,3.93c-2.06,1.25-3.36,1.19-6.35,1.35s-8.84.15-9,.1-.11-.1-.11-.36.11-19.64.11-21.6.2-13.8.2-13.95.16-.1.52-.1,9.35,0,11,.2a9.84,9.84,0,0,1,5.63,2.79,10.33,10.33,0,0,1,3,6.36C202.83,43.68,202.82,50.5,202.77,53Z" transform="translate(-9.99 -30.06)"/><path class="a" d="M245.4,59.94a10.4,10.4,0,0,0-1.75-2.32c-.15-.21-.15-.31.06-.57a10.41,10.41,0,0,0,2.11-3.87,11.6,11.6,0,0,0-.52-6.31,13.84,13.84,0,0,0-3.15-5.16,52.14,52.14,0,0,0-7-7.08,15.61,15.61,0,0,0-7.91-3.05c-3.05-.31-11.05-.41-11.88-.36s-1.14.1-1.14.67c0,.41,0,35.54,0,36a1.35,1.35,0,0,0,.42,1.09l7,6.71a.6.6,0,0,0,.52.21l7.34,0c.41,0,.72-.15.72-.46-.16-.31.05-4.55.05-5s.21-.57.67-.16a80.25,80.25,0,0,0,7,5.22,4.37,4.37,0,0,0,2.17.41,13.41,13.41,0,0,0,3.72-.2,4.51,4.51,0,0,0,2-1.61,1.44,1.44,0,0,0,.25-.77c0-.25,0-5.12-.1-7.44S246.12,61.44,245.4,59.94Z" transform="translate(-9.99 -30.06)"/><path class="b" d="M239.3,64A5.75,5.75,0,0,1,238,66.61a3.88,3.88,0,0,1-3.5,1.5c-1.25,0-2.22-.31-3.41-1.81s-1.25-5.53-1.29-7.9a4.34,4.34,0,0,0-2-4.19c-1.34-.88-5.37-.57-5.58-.52s-.41.06-.41.47-.05,13.34-.05,13.64-.1.36-.36.41h-5.9c-.31,0-.31-.25-.31-.52s-.11-10.95,0-17.25-.11-17.92-.06-18.23,0-.21.26-.31,6.14.1,7.8.2a16.6,16.6,0,0,1,7.13,1.5,12.65,12.65,0,0,1,5.22,5.64,9.85,9.85,0,0,1,.51,7.13,8.49,8.49,0,0,1-2.17,4c-.1.15-.2.25,0,.51a15.62,15.62,0,0,1,1.75,2.75c.68,1.4.73,3.67.78,5.27s0,2,.62,3a4,4,0,0,0,2.12,1.55C239.41,63.56,239.41,63.56,239.3,64Z" transform="translate(-9.99 -30.06)"/><path class="a" d="M227.37,39.33a6.6,6.6,0,0,0-2.69-.46A22.07,22.07,0,0,0,222,39c-.2.05-.36.1-.36.36s.11,6.67.11,7,0,.72.62.72a15.88,15.88,0,0,0,4.8-.21,3.48,3.48,0,0,0,2.75-3.56A4.12,4.12,0,0,0,227.37,39.33Z" transform="translate(-9.99 -30.06)"/><path class="a" d="M276.1,40.31a39.11,39.11,0,0,0-4.5-4.6,47.54,47.54,0,0,0-5.89-4.08,12.91,12.91,0,0,0-7.75-1.5,11.11,11.11,0,0,0-8,4.65,10.2,10.2,0,0,0-2,5.38c0,1.55-.15,4.44-.25,8.83s-.41,9.77.11,11.63a17.2,17.2,0,0,0,2.68,5.89,36.82,36.82,0,0,0,7.39,6.71c3.41,2.28,4.91,2.79,6.87,3a26.9,26.9,0,0,0,7.6,0,8.61,8.61,0,0,0,5.22-3.31A7.58,7.58,0,0,0,279.15,69c.1-.88.31-5.07.36-11.37s.15-9.82-.62-12.25A14.12,14.12,0,0,0,276.1,40.31Z" transform="translate(-9.99 -30.06)"/><path class="b" d="M270.36,58.65a11.92,11.92,0,0,1-3.67,6.88c-2,1.91-3.5,2.42-7.08,2.63s-5.63-1-7.9-3.1a8.54,8.54,0,0,1-3-5.79c-.1-1.5-.05-5.06,0-10.07s.05-6.56.1-8.06a11.13,11.13,0,0,1,2.54-6,8.92,8.92,0,0,1,7.54-3.82,10.81,10.81,0,0,1,7.9,2.75,10.26,10.26,0,0,1,3.52,7.34c.16,2.07.15,4.39.21,8.52S270.52,56.33,270.36,58.65Z" transform="translate(-9.99 -30.06)"/><path class="a" d="M262.46,39.07a4.45,4.45,0,0,0-3.25-1,3.28,3.28,0,0,0-2.95,1.5,5.48,5.48,0,0,0-.83,3c-.05.83-.05,2.84,0,6.35s.06,7.44.25,8.53.25,4,4.19,3.93,3.93-4,3.93-5.17-.11-12.66-.16-14S263.44,39.9,262.46,39.07Z" transform="translate(-9.99 -30.06)"/><path class="a" d="M294.34,39.12a17.55,17.55,0,0,0-3.93-.2c-.57.1-.72,0-.72.41,0,.57.05,6.25,0,6.66s.16.68.67.68a16.84,16.84,0,0,0,4.25-.25c1.34-.52,2.79-1,2.84-3.62A3.74,3.74,0,0,0,294.34,39.12Z" transform="translate(-9.99 -30.06)"/><path class="a" d="M300.23,33.28c-2.22-1.34-3.36-2-6.09-2.06s-10.65-.11-11.06,0-.88.1-.88.67,0,15.19,0,21.29,0,14.2,0,14.77a1.23,1.23,0,0,0,.25.94c.2.25,2.06,2.32,3.36,3.61s2.58,2.38,2.89,2.69a1.47,1.47,0,0,0,1.19.52c.51.05,8.57.2,9,.15s.57,0,.67-.72.1-11.47.1-11.83-.05-.63.42-.63a17.73,17.73,0,0,0,7.13-2c2.79-1.55,6.25-3.31,6.09-9.46s-2.75-8.11-3.72-9.35S302.45,34.58,300.23,33.28Z" transform="translate(-9.99 -30.06)"/><path class="b" d="M301.26,50.39a7.49,7.49,0,0,1-4.95,2.68c-2.12.25-5.64.25-6,.25s-.52,0-.47.31-.15,4.34-.15,7.39v6.73c0,.46-.06.51-.57.51s-5.12-.1-5.63-.1-.37-.2-.37-.56S283.07,55.4,283,50s.05-17.25.1-17.56.06-.21.47-.21,8,0,11.16.11a9.48,9.48,0,0,1,6.61,3.51,10.4,10.4,0,0,1,2.95,7A11,11,0,0,1,301.26,50.39Z" transform="translate(-9.99 -30.06)"/><path class="a" d="M342.5,55.66c-1.65-2-2.38-2.79-2.53-2.95s-.15-.15,0-.1,2.58.1,3.36.1a12.69,12.69,0,0,0,2.58-.15.91.91,0,0,0,.46-.88,17.78,17.78,0,0,0-.15-3.51,11.34,11.34,0,0,0-2.17-5,46,46,0,0,0-5.27-5.79,30.61,30.61,0,0,0-4.13-3.51c-1.71-1.25-3.25-2.54-5.17-2.95a12.15,12.15,0,0,0-6.3-.31A9.1,9.1,0,0,0,318,33.3a11.14,11.14,0,0,0-3.15,5.17,12.52,12.52,0,0,0-.05,6.2A11.89,11.89,0,0,0,317,49.83a17.53,17.53,0,0,0,2.37,3c.72.77,1.19,1.13,1.35,1.29s.72.31-.06.31l-5.73,0c-.26,0-.41,0-.41.25s.1,2.79.25,4.44a14.47,14.47,0,0,0,3,7A42.28,42.28,0,0,0,324.57,73a15.25,15.25,0,0,0,6.82,3.21,63,63,0,0,0,7.44.15,7.38,7.38,0,0,0,5.42-2.84c2-2.33,2.23-7.23,2.23-9.15a8.55,8.55,0,0,0-.73-4A34,34,0,0,0,342.5,55.66Z" transform="translate(-9.99 -30.06)"/><path class="b" d="M334.9,64.54a9.71,9.71,0,0,1-7.33,3.62,10.23,10.23,0,0,1-6.93-1.86,11.94,11.94,0,0,1-4.39-5.89,19.42,19.42,0,0,1-.77-4.6c0-.15,0-.2.31-.2l5.89-.06c.25,0,.36,0,.36.21a10.69,10.69,0,0,0,.41,2.69,4.15,4.15,0,0,0,4,2.94,3.72,3.72,0,0,0,4.19-3.92,4.12,4.12,0,0,0-2.43-3.83c-1-.57-3.2-.82-4.86-1.25A9.7,9.7,0,0,1,318,49c-1.86-2.11-2.53-5.27-2.64-7.85a10,10,0,0,1,2.75-6.5,10.74,10.74,0,0,1,7.34-3.46,11.56,11.56,0,0,1,7.7,2.63,10.17,10.17,0,0,1,3.61,5.95,14.33,14.33,0,0,1,.36,3.92c0,.36-.1.31-.36.31s-5.37-.2-5.78-.2-.37-.06-.37-.25-.25-3.52-2.17-4.65a4.22,4.22,0,0,0-5.11.41,4.1,4.1,0,0,0-.78,4.65c.83,1.6,2.07,2.17,5.79,2.84a11.74,11.74,0,0,1,7.5,5,9.42,9.42,0,0,1,1.55,5.58A10.34,10.34,0,0,1,334.9,64.54Z" transform="translate(-9.99 -30.06)"/><path class="a" d="M351.22,65.15a.53.53,0,0,0-.42-.18c-.25,0-3,0-3.14,0s-.16.12-.16.22-.1,2.65-.1,2.85a.69.69,0,0,0,.18.47c.08.14,1,1,1.79,1.77s1.11,1,1.18,1.08a.38.38,0,0,0,.29.06c.08,0,1.2.06,1.62,0s.89,0,1-.06.14-.12.16-.25,0-3.06,0-3.22,0-.16-.14-.32S351.32,65.27,351.22,65.15Z" transform="translate(-9.99 -30.06)"/><path class="b" d="M350.21,68.08c0,.16,0,.2-.14.2l-2-.1c-.14,0-.12-.1-.12-.22v-2.5c0-.08,0,0,.16,0l2.05,0c.1,0,.12,0,.12.2S350.21,67.94,350.21,68.08Z" transform="translate(-9.99 -30.06)"/><path class="a" d="M366.72,55.92c-.18-.16-.4-.48-1-1a13.3,13.3,0,0,0-1.12-.86.77.77,0,0,0-.52-.18l-3.28,0c-.16,0-.18,0-.18.2s0,1.19,0,1.35.06.26-.18,0-2.2-1.31-2.38-1.43a.75.75,0,0,0-.52-.16c-.25,0-2.75,0-2.94,0s-.2,0-.22.2,0,6.11-.06,7.46,0,6.82,0,7,0,.3.18.42,2.34,2.13,2.46,2.25a.44.44,0,0,0,.32.1c.12,0,3.2,0,3.38,0s.3,0,.3-.25V69.85c0-.17,0-.23.18-.07s1.93,1.27,2.09,1.39a.9.9,0,0,0,.5.16c.25,0,2.94,0,3.06,0s.18-.14.2-.48-.08-13.95-.1-14.29S366.92,56.1,366.72,55.92Z" transform="translate(-9.99 -30.06)"/><path class="b" d="M363.56,68.25l-2.35.08c-.12,0-.12,0-.2-.18s-3.48-8.06-3.56-8.18-.14-.36-.14,0,.06,7.78.06,8,0,.22-.16.22-2.3.08-2.4.08-.08,0-.08-.16,0-4.28,0-6,.05-7.58,0-7.68,0-.12.1-.14,2.52-.08,2.6-.08.1,0,.14.12,1.07,2.39,1.5,3.35,1.55,3.73,1.77,4.21.2.25.2,0v-7.4c0-.18,0-.18.1-.18l2.31-.08a.14.14,0,0,1,.16.11h0c0,.1.06,13.65.06,13.79S363.66,68.25,363.56,68.25Z" transform="translate(-9.99 -30.06)"/><path class="a" d="M380.12,56.52c0-.14,0-.16-.08-.28S377.54,54,377.45,54a.38.38,0,0,0-.25-.08c-.14,0-8.55,0-8.71,0s-.25.06-.22.2-.14,14.07-.14,14.25.12.22.16.28,2.72,2.53,2.8,2.59a.22.22,0,0,0,.2.08l8.64-.08c.14,0,.18,0,.18-.2s0-2.9,0-3a.33.33,0,0,0-.09-.22c-.08-.1-2.67-2.65-2.73-2.71s0-.1,0-.12,0-.08,0-.16-.06-2.27-.06-2.38a.21.21,0,0,0-.06-.18l-1.75-2.39c-.08-.1-.06-.08.08-.08s4.3.06,4.46.06.13,0,.14-.18S380.1,56.64,380.12,56.52Z" transform="translate(-9.99 -30.06)"/><path class="b" d="M376.66,56.68c0,.1,0,.14-.18.18s-5.08.06-5.18.06-.12,0-.12.09,0,2.59,0,2.67,0,.12.1.12l2.91,0c.06,0,.06,0,0,.08s0,2.35,0,2.43,0,.1-.1.1-2.63,0-2.77,0-.16.09-.14.16,0,2.62,0,2.74,0,.14.12.16,5.16,0,5.28,0,.12,0,.12.12,0,2.33,0,2.43,0,.14-.08.14-8,.06-8.12.09-.1,0-.1-.11.18-13.65.18-13.81,0-.16.16-.16,7.7,0,7.8.06.1.06.1.12S376.68,56.58,376.66,56.68Z" transform="translate(-9.99 -30.06)"/><path class="a" d="M393.27,56.28c-.06-.08-2.25-2.17-2.36-2.25a.5.5,0,0,0-.34-.12l-9.45-.1c-.16,0-.25.06-.25.36,0,.12,0,3,0,3.06a.3.3,0,0,0,.1.25c.08.1,2.81,2.63,2.88,2.69s.11.1.11.22.05,7.86,0,8a.36.36,0,0,0,.08.27c.06.1,2.25,2.22,2.36,2.3s.3.3.44.3l3.72,0c.16,0,.25,0,.22-.2s.08-10.3.08-10.4,0-.16.16-.16l2.17,0c.08,0,.12-.08.12-.18s0-3.6,0-3.74A.38.38,0,0,0,393.27,56.28Z" transform="translate(-9.99 -30.06)"/><path class="b" d="M390,56.78l-1.31,0-1.53,0c-.14,0-.2.06-.2.16s0,11.1,0,11.16,0,.1,0,.1l-1.17,0-1.2,0s0,0,0-.08-.1-11.14-.1-11.22a.16.16,0,0,0-.12-.14c-.08,0-2.9-.06-3-.06s-.08,0-.08-.06-.06-2.29,0-2.39,0-.12.14-.1,2.59,0,4.06,0,4.44,0,4.49,0,.1,0,.1.08a9,9,0,0,1,0,1.16c0,.49,0,1.21,0,1.27S390.05,56.78,390,56.78Z" transform="translate(-9.99 -30.06)"/><path class="a" d="M89.15,39.06a4.5,4.5,0,0,0-3.25-1,3.3,3.3,0,0,0-3,1.5,5.48,5.48,0,0,0-.83,3c-.05.83-.05,2.84,0,6.36a84.42,84.42,0,0,0,.26,8.52c.19,1.08.24,4,4.18,3.92s3.93-4,3.93-5.16-.11-12.66-.16-14S90.13,39.89,89.15,39.06Z" transform="translate(-9.99 -30.06)"/><path class="a" d="M195.28,40.25A4.78,4.78,0,0,0,192.5,39c-.62,0-1.09-.11-1.91-.11a8.14,8.14,0,0,0-1.55.21.29.29,0,0,0-.21.31c0,.21-.15,21.75-.15,21.91s.25.31.62.41a16.38,16.38,0,0,0,4,0,3,3,0,0,0,1.86-1,3.41,3.41,0,0,0,1-1.86c.15-.73.31-5.89.31-8.58s.1-6.1,0-7A5,5,0,0,0,195.28,40.25Z" transform="translate(-9.99 -30.06)"/><path class="a" d="M227.37,39.33a6.6,6.6,0,0,0-2.69-.46A22.07,22.07,0,0,0,222,39c-.2.05-.36.1-.36.36s.11,6.67.11,7,0,.72.62.72a15.88,15.88,0,0,0,4.8-.21,3.48,3.48,0,0,0,2.75-3.56A4.12,4.12,0,0,0,227.37,39.33Z" transform="translate(-9.99 -30.06)"/><path class="a" d="M262.46,39.08a4.46,4.46,0,0,0-3.25-1,3.32,3.32,0,0,0-2.95,1.5,5.48,5.48,0,0,0-.83,3c-.05.83-.05,2.85,0,6.36s.06,7.44.25,8.53.25,4,4.19,3.92,3.93-4,3.93-5.16-.11-12.66-.16-14S263.44,39.9,262.46,39.08Z" transform="translate(-9.99 -30.06)"/><path class="a" d="M294.43,39.12a17.44,17.44,0,0,0-3.92-.2c-.57.1-.72,0-.72.41,0,.57,0,6.25,0,6.66s.15.68.67.68a16.84,16.84,0,0,0,4.25-.25c1.34-.52,2.79-1,2.84-3.62A3.73,3.73,0,0,0,294.43,39.12Z" transform="translate(-9.99 -30.06)"/></svg>