<svg xmlns="http://www.w3.org/2000/svg" viewBox="0 0 310 310"><defs><style>.a{fill:#231f20;}.b{fill:#fff;}</style></defs><path class="a" d="M149.79,167.4c-7.89-9.53-11.17-13.14-12.16-14.13s-.65-.66,0-.66c.66.33,12.16.66,16.1.66a49.21,49.21,0,0,0,12.15-.66,4.54,4.54,0,0,0,2.3-3.94,94.87,94.87,0,0,0-.66-16.75,49.39,49.39,0,0,0-10.51-24,248.72,248.72,0,0,0-25-27.59A155.85,155.85,0,0,0,112.34,63.6c-8.21-5.92-15.44-12.16-24.63-14.13a57.91,57.91,0,0,0-29.9-1.31C46.65,50.79,39.75,54.07,33.18,61A51.3,51.3,0,0,0,18.4,85.6a60,60,0,0,0-.33,29.57A53.1,53.1,0,0,0,28.58,139.8a91.41,91.41,0,0,0,11.17,14.13L46,160.17c.66.66,3.61,1.64-.33,1.64l-27.26.33c-1.32,0-2-.33-2,1.31s.65,13.14,1.31,21A70.68,70.68,0,0,0,31.86,218,191,191,0,0,0,64.38,250.5C75.88,259.7,89,265,96.9,265.61a256.3,256.3,0,0,0,35.48.66,36.19,36.19,0,0,0,26-13.47c9.52-11.17,10.51-34.49,10.51-43.36a41.69,41.69,0,0,0-3.29-19.05A175.45,175.45,0,0,0,149.79,167.4Z"/><path class="b" d="M113.65,209.77a46.44,46.44,0,0,1-34.81,17.08A49,49,0,0,1,46,218c-13.14-9.2-17.08-19.38-21-27.92A120.34,120.34,0,0,1,21,168.38c0-.66,0-1,1.65-1l27.92-.33c1.31,0,1.64,0,1.64,1a43.48,43.48,0,0,0,2,12.81,20.13,20.13,0,0,0,19,13.8c11.83.66,20.37-7.23,20-18.72-.33-11.17-6.57-15.11-11.5-18.07s-15.11-3.94-23-5.91a46.19,46.19,0,0,1-25.95-16.1C24,125.68,20.7,110.9,20.37,98.42,20,86.26,26.61,75.75,33.51,67.54A51.25,51.25,0,0,1,68.32,51.11,54.22,54.22,0,0,1,104.79,63.6c11.16,8.87,14.78,19.05,17.08,28.25a72.35,72.35,0,0,1,1.64,18.72c0,1.64-.33,1.31-1.64,1.31s-25.63-1-27.6-1-1.64-.33-1.64-1.32-1.31-16.75-10.18-22a20.24,20.24,0,0,0-24.31,2,19,19,0,0,0-3.61,22c3.94,7.56,9.85,10.19,27.59,13.47a56.89,56.89,0,0,1,35.8,23.65,42.41,42.41,0,0,1,7.23,26.61C124.82,184.8,124.82,196,113.65,209.77Z"/><path class="a" d="M149.79,166.08c-7.89-9.52-11.17-13.14-12.16-14.12s-.65-.66,0-.66c.66.33,12.16.66,16.1.66a49.21,49.21,0,0,0,12.15-.66c1.64-.66,2.3-2.63,2.3-4.27a94.87,94.87,0,0,0-.66-16.75,52.22,52.22,0,0,0-10.51-24,247.83,247.83,0,0,0-25-27.59A136.42,136.42,0,0,0,112.34,62C104.13,56,96.9,49.8,87.71,47.83a61.42,61.42,0,0,0-29.9-1.64C46.65,48.49,39.75,52.1,33.18,59A52,52,0,0,0,18.07,83.63a60,60,0,0,0-.33,29.57,53.1,53.1,0,0,0,10.51,24.63A92,92,0,0,0,39.42,152l6.24,6.24c.66.66,3.61,1.64-.33,1.64l-27.26.33c-1.32,0-2-.33-2,1.31s.65,13.14,1.31,21A70.6,70.6,0,0,0,31.54,216a190.25,190.25,0,0,0,32.52,32.52c11.49,9.2,24.63,14.45,32.51,15.11a257.9,257.9,0,0,0,35.48.66A36.19,36.19,0,0,0,158,250.83c9.53-11.17,10.51-34.49,10.51-43.36a41.82,41.82,0,0,0-3.28-19.05A179.8,179.8,0,0,0,149.79,166.08Z"/><path class="b" d="M113.65,208.46a46.44,46.44,0,0,1-34.81,17.08A49,49,0,0,1,46,216.67c-13.14-9.2-17.08-19.38-21-27.92a99.61,99.61,0,0,1-3.62-22c0-.66,0-1,1.65-1l27.92-.33c1.31,0,1.64,0,1.64,1a43.48,43.48,0,0,0,2,12.81,20,20,0,0,0,19,14.13c11.83.65,20.37-7.23,20-18.73-.33-11.17-6.57-15.11-11.5-18.06s-15.11-3.95-23-5.92a46.14,46.14,0,0,1-25.95-16.09C24.31,124.37,21,109.58,20.7,97.1s6.24-22.66,13.13-30.88A51.31,51.31,0,0,1,68.65,49.8a54.11,54.11,0,0,1,36.46,12.48c11.17,8.87,14.79,19,17.08,28.25a68.26,68.26,0,0,1,1.32,18.4c0,1.64-.33,1.64-1.64,1.64s-25.62-1-27.6-1-1.64-.32-1.64-1.31-1.31-16.75-10.51-22a20.3,20.3,0,0,0-24.31,2,19.06,19.06,0,0,0-3.61,22c3.94,7.56,9.85,10.18,27.59,13.47a55.32,55.32,0,0,1,35.48,23.65A44.92,44.92,0,0,1,124.82,174C124.82,183.49,124.82,194.66,113.65,208.46Z"/><path class="a" d="M220.74,94.47a24.63,24.63,0,0,0-13.14-6.24,77,77,0,0,0-9.2-.33,25.4,25.4,0,0,0-7.22,1,1.52,1.52,0,0,0-1,1.64c0,1-.66,103.47-.66,104.13s1.32,1.64,3,2a91.87,91.87,0,0,0,19,0,15,15,0,0,0,8.87-4.93,16,16,0,0,0,4.93-8.87c.65-3.28,1.31-27.92,1.31-40.73s.66-28.9,0-33.17A22.93,22.93,0,0,0,220.74,94.47Z"/><path class="a" d="M297.93,138.16c-.66-7.88-.66-10.18-3-15.11a155.77,155.77,0,0,0-14.45-24.63,158.74,158.74,0,0,0-20-22c-5.58-5.26-16.75-15.11-27.59-20-10.51-5.26-16.09-4.6-25.29-4.93-9.53-.33-45.33-.33-48-.33s-2.63.33-2.63,2c-.32,2.3-1.31,89.34-1.31,110s-.33,62.41-.33,65,0,2.63,1.32,3.62,28.9,27.92,30.87,29.89,1.64,1.31,4.6,1.31,64,1,72.59,0a29.78,29.78,0,0,0,22-10.84c6.9-7.55,9.86-11.82,10.84-22.66s.66-25.3.66-40.41S297.93,145.72,297.93,138.16Z"/><path class="b" d="M256.54,155.24c-.33,12.16-.33,22.67-.66,28.58a44.43,44.43,0,0,1-5.58,18.07,43.59,43.59,0,0,1-17.41,18.72c-9.85,5.91-16.09,5.58-30.22,6.57s-42,.33-43,.33-.33-.33-.33-1.65.33-93.28.33-102.81c0-8.87,1-65.69,1-66.35s.65-.33,2.62-.33,44.35.33,52.23,1a47.52,47.52,0,0,1,26.94,13.13c7.88,7.89,14.12,20,14.12,30.22S256.87,143.09,256.54,155.24Z"/><path class="a" d="M220.74,94.47a24.63,24.63,0,0,0-13.14-6.24,77,77,0,0,0-9.2-.33,25.4,25.4,0,0,0-7.22,1,1.52,1.52,0,0,0-1,1.64c0,1-.66,103.47-.66,104.13s1.32,1.64,3,2a91.87,91.87,0,0,0,19,0,15,15,0,0,0,8.87-4.93,16,16,0,0,0,4.93-8.87c.65-3.28,1.31-27.92,1.31-40.73s.66-28.9,0-33.17A22.93,22.93,0,0,0,220.74,94.47Z"/></svg>